# Alias OBJ Model File
# Exported from SketchUp, (c) 2000-2012 Trimble Navigation Limited
# File units = meters

mtllib monitor1.mtl

g Mesh1 Model

usemtl Color_M09
v -7.90434 0 0.987531
vt -311.195 0
vn 0 0 1
v -2.22434 0 0.987531
vt -87.5725 0
v -2.22434 0.34 0.987531
vt -87.5725 13.3858
v -7.90434 0.34 0.987531
vt -311.195 13.3858
f 1/1/1 2/2/1 3/3/1 4/4/1 

v -2.22434 0 -6.03247
vt 87.5725 237.499
vn 0 -1 -0
vt 87.5725 -38.8792
vt 311.195 -38.8792
v -7.90434 0 -6.03247
vt 311.195 237.499
f 5/5/2 2/6/2 1/7/2 6/8/2 

vt -38.8792 0
vn 1 0 -0
vt 237.499 0
v -2.22434 0.34 -6.03247
vt 237.499 13.3858
vt -38.8792 13.3858
f 2/9/3 5/10/3 7/11/3 3/12/3 

vt 87.5725 0
vn 0 0 -1
vt 311.195 0
v -7.90434 0.34 -6.03247
vt 311.195 13.3858
vt 87.5725 13.3858
f 5/13/4 6/14/4 8/15/4 7/16/4 

vt -237.499 0
vn -1 0 -0
vt 38.8792 0
vt 38.8792 13.3858
vt -237.499 13.3858
f 6/17/5 1/18/5 4/19/5 8/20/5 

vt -311.195 -38.8792
vn 0 1 -0
v -3.60719 0.34 -0.672263
vt -142.015 26.4671
vt -311.195 237.499
f 4/21/6 9/22/6 8/23/6

vt -87.5725 -38.8792
f 9/22/6 4/21/6 3/24/6

v -3.10719 0.34 -0.672263
vt -122.33 26.4671
f 9/22/6 3/24/6 10/25/6

v -3.10719 0.34 -3.96226
vt -122.33 155.995
f 10/25/6 3/24/6 11/26/6

vt -87.5725 237.499
f 7/27/6 11/26/6 3/24/6

v -3.60719 0.34 -3.96226
vt -142.015 155.995
f 7/27/6 12/28/6 11/26/6

f 8/23/6 12/28/6 7/27/6

f 12/28/6 8/23/6 9/22/6

vt -155.995 13.3858
vt -26.4671 13.3858
v -3.60719 0.8 -0.672263
vt -26.4671 31.4961
v -3.60719 0.8 -0.692263
vt -27.2545 31.4961
v -3.60719 0.8 -3.96226
vt -155.995 31.4961
f 12/29/5 9/30/5 13/31/5 14/32/5 15/33/5 

vt -142.015 13.3858
vt -122.33 13.3858
v -3.10719 0.8 -0.672263
vt -122.33 31.4961
vt -142.015 31.4961
f 9/34/1 10/35/1 16/36/1 13/37/1 

vt 26.4671 13.3858
vt 155.995 13.3858
v -3.10719 0.8 -3.96226
vt 155.995 31.4961
v -3.10719 0.8 -0.692263
vt 27.2545 31.4961
vt 26.4671 31.4961
f 10/38/3 11/39/3 17/40/3 18/41/3 16/42/3 

vt 122.33 13.3858
vt 142.015 13.3858
vt 142.015 31.4961
vt 122.33 31.4961
f 11/43/4 12/44/4 15/45/4 17/46/4 

v -6.42673 3.60205 -3.96226
vt 253.021 141.813
v -6.42673 4.09895 -3.96226
vt 253.021 161.376
f 19/47/4 20/48/4 17/46/4 15/45/4 

usemtl FrontColor
vt -155.995 161.376
vt -155.995 141.813
v -6.42673 3.60205 -0.692263
vt -27.2545 141.813
v -6.42673 4.09895 -0.692263
vt -27.2545 161.376
f 20/49/5 19/50/5 21/51/5 22/52/5 

usemtl Color_M09
vt -155.995 279.433
vn -0.704903 -0.709304 -4.3213e-33
vt -155.995 122.934
vt -27.2545 122.934
vt -27.2545 279.433
f 19/53/7 15/54/7 14/55/7 21/56/7 

usemtl FrontColor
vt -142.015 27.2545
vt -122.33 27.2545
f 17/26/6 15/28/6 14/57/6 18/58/6 

f 16/25/6 18/58/6 14/57/6 13/22/6 

usemtl Color_M09
vt -253.021 161.376
vt -253.021 141.813
f 22/59/1 21/60/1 14/37/1 18/36/1 

vt 155.995 108.971
vn 0.704903 0.709304 8.58898e-33
vt 155.995 293.223
vt 27.2545 293.223
vt 27.2545 108.971
f 17/61/8 20/62/8 22/63/8 18/64/8 

g Mesh2 Model

usemtl Color_M05
v -6.44874 0.803672 1.64739
vt -64.8578 31.6406
v -6.44874 1.09206 1.40976
vt -55.5022 42.9944
v -6.44874 6.68367 1.64739
vt -64.8578 263.137
f 23/65/3 24/66/3 25/67/3

v -6.44874 0.803672 -6.79261
vt 267.426 31.6406
f 24/66/3 23/65/3 26/68/3

vt 253.887 267.426
vt 253.887 -64.8578
v -6.92874 0.803672 1.64739
vt 272.785 -64.8578
v -6.92874 0.803672 -6.79261
vt 272.785 267.426
f 26/69/2 23/70/2 27/71/2 28/72/2 

vt -253.887 31.6406
vt -253.887 263.137
v -6.92874 6.68367 1.64739
vt -272.785 263.137
vt -272.785 31.6406
f 23/73/1 25/74/1 29/75/1 27/76/1 

vt -253.887 -64.8578
v -6.44874 6.68367 -6.79261
vt -253.887 267.426
v -6.92874 6.68367 -6.79261
vt -272.785 267.426
vt -272.785 -64.8578
f 25/77/6 30/78/6 31/79/6 29/80/6 

v -6.44874 6.41206 1.40976
vt -55.5022 252.443
vt 267.426 263.137
f 25/67/3 32/81/3 30/82/3

f 32/81/3 25/67/3 24/66/3

usemtl FrontColor
vt 253.887 42.9944
v -6.46874 1.09206 1.40976
vt 254.675 42.9944
v -6.46874 6.41206 1.40976
vt 254.675 252.443
vt 253.887 252.443
f 24/83/4 33/84/4 34/85/4 32/86/4 

v -6.44874 1.09206 -6.52024
vt -253.887 256.702
v -6.46874 1.09206 -6.52024
vt -254.675 256.702
vt -254.675 -55.5022
vt -253.887 -55.5022
f 35/87/6 36/88/6 33/89/6 24/90/6 

v -6.44874 6.41206 -6.52024
vt -253.887 252.443
v -6.46874 6.41206 -6.52024
vt -254.675 252.443
vt -254.675 42.9944
vt -253.887 42.9944
f 37/91/1 38/92/1 36/93/1 35/94/1 

vt 253.887 -55.5022
vt 254.675 -55.5022
vt 254.675 256.702
vt 253.887 256.702
f 32/95/2 34/96/2 38/97/2 37/98/2 

usemtl Color_M09
vt -256.702 42.9944
vt 55.5022 42.9944
vt 55.5022 252.443
vt -256.702 252.443
f 36/99/5 33/100/5 34/101/5 38/102/5 

usemtl Color_M05
v -6.92874 1.09206 1.40976
vt -272.785 -55.5022
v -6.92874 1.09206 -6.52024
vt -272.785 256.702
f 39/103/6 33/89/6 36/88/6 40/104/6 

v -6.92874 6.41206 1.40976
vt 272.785 252.443
vt 272.785 42.9944
f 41/105/4 34/85/4 33/84/4 39/106/4 

v -6.92874 6.41206 -6.52024
vt 272.785 256.702
vt 272.785 -55.5022
f 42/107/2 38/97/2 34/96/2 41/108/2 

vt -272.785 42.9944
vt -272.785 252.443
f 40/109/1 36/93/1 38/92/1 42/110/1 

vt -267.426 263.137
f 42/102/5 31/111/5 40/99/5

f 41/101/5 31/111/5 42/102/5

vt 64.8578 263.137
f 41/101/5 29/112/5 31/111/5

vt 64.8578 31.6406
f 29/112/5 41/101/5 27/113/5

f 39/100/5 27/113/5 41/101/5

vt -267.426 31.6406
f 27/113/5 39/100/5 28/114/5

f 28/114/5 39/100/5 40/99/5

f 28/114/5 40/99/5 31/111/5

vt 253.887 263.137
vt 253.887 31.6406
vt 272.785 31.6406
vt 272.785 263.137
f 30/115/4 26/116/4 28/117/4 31/118/4 

vt 256.702 252.443
f 30/82/3 37/119/3 26/68/3

f 30/82/3 32/81/3 37/119/3

vt 256.702 42.9944
f 35/120/3 26/68/3 37/119/3

f 24/66/3 26/68/3 35/120/3

