# Alias OBJ Model File
# Exported from SketchUp, (c) 2000-2012 Trimble Navigation Limited
# File units = millimeters

mtllib monitor2.mtl

g Mesh1 Model

usemtl Color_M09
v 5544.05 0 14421.7
vt -218.27 -567.783
vn 0 -1 -0
v 5383.6 0 15007.7
vt -211.953 -590.856
v 5377.14 0 14710
vt -211.698 -579.134
f 1/1/1 2/2/1 3/3/1

v 5563.01 0 15294.6
vt -219.016 -602.149
f 2/2/1 1/1/1 4/4/1

v 5872.98 0 14162.4
vt -231.219 -557.575
f 4/4/1 1/1/1 5/5/1

vt 163.583 0
vn -0.519894 0 -0.854231
vt 180.072 0
vn -0.755739 0 -0.654873
v 5544.05 476 14421.7
vt 180.072 18.7402
v 5872.98 476 14162.4
vt 163.583 18.7402
f 5/6/2 1/7/3 6/8/3 7/9/2 

vt 382.024 0
vt 395.14 0
vn -0.968533 0 -0.248886
v 5377.14 476 14710
vt 395.14 18.7402
vt 382.024 18.7402
f 1/10/3 3/11/4 8/12/4 6/13/3 

vt 583.594 0
vt 595.319 0
vn -0.958151 0 0.286264
v 5383.6 476 15007.7
vt 595.319 18.7402
vt 583.594 18.7402
f 3/14/4 2/15/5 9/16/5 8/17/4 

vt 613.335 0
vt 626.654 0
vn -0.737194 0 0.675681
v 5563.01 476 15294.6
vt 626.654 18.7402
vt 613.335 18.7402
f 2/18/5 4/19/6 10/20/6 9/21/5 

vt 537.361 0
v 5903.13 0 15551
vt 554.13 0
vn -0.504459 0 0.863435
v 5903.13 476 15551
vt 554.13 18.7402
vt 537.361 18.7402
f 4/22/6 11/23/7 12/24/7 10/25/6 

vt -232.407 -612.243
f 4/4/1 5/5/1 11/26/1

v 6341.49 0 13949.9
vt -249.665 -549.207
f 11/26/1 5/5/1 13/27/1

vt -0.453564 0
vn -0.334805 0 -0.942287
vt 19.8015 0
vt 19.8015 18.7402
v 6341.49 476 13949.9
vt -0.453564 18.7402
f 13/28/8 5/29/2 7/30/2 14/31/8 

vt 231.219 -557.575
vn 0 1 -0
vt 232.407 -612.243
vt 249.665 -549.207
f 7/32/9 12/33/9 14/34/9

vt 219.016 -602.149
f 7/32/9 10/35/9 12/33/9

vt 218.27 -567.783
f 6/36/9 10/35/9 7/32/9

vt 211.953 -590.856
f 6/36/9 9/37/9 10/35/9

vt 211.698 -579.134
f 9/37/9 6/36/9 8/38/9

v 6380.79 476 15759.5
vt 251.212 -620.451
f 14/34/9 12/33/9 15/39/9

vt 457.919 0
v 6380.79 0 15759.5
vt 478.438 0
vn -0.322946 0 0.946418
vt 478.438 18.7402
vt 457.919 18.7402
f 11/40/7 16/41/10 15/42/10 12/43/7 

vt -251.212 -620.451
f 11/26/1 13/27/1 16/44/1

v 6917.67 0 13798.5
vt -272.349 -543.248
f 16/44/1 13/27/1 17/45/1

vt -125.391 0
vn -0.188915 0 -0.981993
vt -101.937 0
vt -101.937 18.7402
v 6917.67 476 13798.5
vt -125.391 18.7402
f 17/46/11 13/47/8 14/48/8 18/49/11 

vt 272.349 -543.248
f 14/34/9 15/39/9 18/50/9

v 6963.43 476 15905.8
vt 274.151 -626.214
f 18/50/9 15/39/9 19/51/9

vt 394.813 0
v 6963.43 0 15905.8
vt 418.465 0
vn -0.179161 0 0.98382
vt 418.465 18.7402
vt 394.813 18.7402
f 16/52/10 20/53/12 19/54/12 15/55/10 

vt -274.151 -626.214
f 16/44/1 17/45/1 20/56/1

v 7052.73 0 14684.2
vt -277.666 -578.117
f 20/56/1 17/45/1 21/57/1

v 7110.26 0 14561.9
vt -279.931 -573.303
f 21/57/1 17/45/1 22/58/1

v 7562.24 0 13718.7
vt -297.726 -540.105
f 22/58/1 17/45/1 23/59/1

vt -229.079 0
vn -0.0637226 0 -0.997968
vt -203.508 0
vt -203.508 18.7402
v 7562.24 476 13718.7
vt -229.079 18.7402
f 23/60/13 17/61/11 18/62/11 24/63/13 

v 7110.26 476 14561.9
vt 279.931 -573.303
vt 297.726 -540.105
f 18/50/9 25/64/9 24/65/9

v 7052.73 476 14684.2
vt 277.666 -578.117
f 18/50/9 26/66/9 25/64/9

f 18/50/9 19/51/9 26/66/9

v 7054.93 476 14810.4
vt 277.753 -583.088
f 19/51/9 27/67/9 26/66/9

v 7611.36 476 15980.1
vt 299.66 -629.138
f 27/67/9 19/51/9 28/68/9

vt 343.689 0
v 7611.36 0 15980.1
vt 369.365 0
vn -0.054893 0 0.998492
vt 369.365 18.7402
vt 343.689 18.7402
f 20/69/12 29/70/14 28/71/14 19/72/12 

v 7054.93 0 14810.4
vt -277.753 -583.088
vt -299.66 -629.138
f 20/56/1 30/73/1 29/74/1

f 30/73/1 20/56/1 21/57/1

v 7116.72 0 14932.1
vt -280.186 -587.877
f 29/74/1 30/73/1 31/75/1

v 7233.88 0 15040.8
vt -284.798 -592.159
f 29/74/1 31/75/1 32/76/1

v 7398.42 0 15129.3
vt -291.277 -595.64
f 29/74/1 32/76/1 33/77/1

v 7599.14 0 15191.3
vt -299.179 -598.085
f 29/74/1 33/77/1 34/78/1

v 7822.36 0 15222.9
vt -307.967 -599.325
f 29/74/1 34/78/1 35/79/1

v 8280.4 0 15977.2
vt -326 -629.025
f 29/74/1 35/79/1 36/80/1

v 8052.86 0 15221.7
vt -317.042 -599.278
f 36/80/1 35/79/1 37/81/1

v 8274.93 0 15187.8
vt -325.785 -597.945
f 36/80/1 37/81/1 38/82/1

v 8473.45 0 15123.6
vt -333.6 -595.418
f 36/80/1 38/82/1 39/83/1

v 8924.98 0 15897.4
vt -351.377 -625.882
f 36/80/1 39/83/1 40/84/1

v 8634.88 0 15033.5
vt -339.956 -591.87
f 40/84/1 39/83/1 41/85/1

v 8748.22 0 14923.5
vt -344.418 -587.541
f 40/84/1 41/85/1 42/86/1

v 8805.74 0 14801.3
vt -346.683 -582.727
f 40/84/1 42/86/1 43/87/1

v 8879.21 0 13790.1
vt -349.575 -542.916
f 40/84/1 43/87/1 44/88/1

v 8803.54 0 14675
vt -346.596 -577.756
f 45/89/1 44/88/1 43/87/1

v 8741.75 0 14553.3
vt -344.163 -572.966
f 46/90/1 44/88/1 45/89/1

v 8624.59 0 14444.6
vt -339.551 -568.685
f 47/91/1 44/88/1 46/90/1

v 8460.05 0 14356.2
vt -333.073 -565.203
f 48/92/1 44/88/1 47/91/1

v 8259.33 0 14294.1
vt -325.17 -562.759
f 49/93/1 44/88/1 48/92/1

v 8231.29 0 13715.8
vt -324.067 -539.992
f 49/93/1 50/94/1 44/88/1

v 8036.11 0 14262.6
vt -316.382 -561.518
f 51/95/1 50/94/1 49/93/1

v 7805.61 0 14263.8
vt -307.308 -561.566
f 52/96/1 50/94/1 51/95/1

v 7583.54 0 14297.6
vt -298.565 -562.898
f 53/97/1 50/94/1 52/96/1

f 53/97/1 23/59/1 50/94/1

v 7385.02 0 14361.8
vt -290.749 -565.425
f 54/98/1 23/59/1 53/97/1

v 7223.59 0 14451.9
vt -284.394 -568.974
f 55/99/1 23/59/1 54/98/1

f 22/58/1 23/59/1 55/99/1

vt -321.741 0
vn 0.054893 0 -0.998492
vt -295.401 0
vt -295.401 18.7402
v 8231.29 476 13715.8
vt -321.741 18.7402
f 50/100/15 23/101/13 24/102/13 56/103/15 

v 7583.54 476 14297.6
vt 298.565 -562.898
vt 324.067 -539.992
f 24/65/9 57/104/9 56/105/9

v 7385.02 476 14361.8
vt 290.749 -565.425
f 24/65/9 58/106/9 57/104/9

v 7223.59 476 14451.9
vt 284.394 -568.974
f 24/65/9 59/107/9 58/106/9

f 24/65/9 25/64/9 59/107/9

vt 192.058 18.7402
vn -0.596992 0 -0.802247
vt 198.275 18.7402
vn -0.81379 0 -0.581159
v 7110.26 1573 14561.9
vt 198.275 61.9291
v 7223.59 1573 14451.9
vt 192.058 61.9291
f 59/108/16 25/109/17 60/110/17 61/111/16 

vt 399.589 18.7402
vt 404.91 18.7402
vn -0.977792 1.21329e-16 -0.209578
v 7052.73 1573 14684.2
vt 404.91 61.9291
vt 399.589 61.9291
f 25/112/17 26/113/18 62/114/18 60/115/17 

vt 582.876 18.7402
vt 587.848 18.7402
vn -0.970451 1.21263e-16 0.241299
v 7054.93 1573 14810.4
vt 587.848 61.9291
v 7053.7 1573 14739.8
vt 585.066 61.9291
vn -0.999848 2.36346e-16 0.0174588
vt 582.876 61.9291
f 26/116/18 27/117/19 63/118/19 64/119/20 62/120/18 

vt 645.654 18.7402
v 7116.72 476 14932.1
vt 651.026 18.7402
vn -0.798328 0 0.602223
v 7116.72 1573 14932.1
vt 651.026 61.9291
vt 645.654 61.9291
f 27/121/19 65/122/21 66/123/21 63/124/19 

vt 280.186 -587.877
f 27/67/9 28/68/9 65/125/9

v 7233.88 476 15040.8
vt 284.798 -592.159
f 65/125/9 28/68/9 67/126/9

v 7398.42 476 15129.3
vt 291.277 -595.64
f 67/126/9 28/68/9 68/127/9

v 7599.14 476 15191.3
vt 299.179 -598.085
f 68/127/9 28/68/9 69/128/9

v 7822.36 476 15222.9
vt 307.967 -599.325
f 69/128/9 28/68/9 70/129/9

v 8280.4 476 15977.2
vt 326 -629.025
f 70/129/9 28/68/9 71/130/9

vt 296.951 0
vt 323.292 0
vn 0.0637226 0 0.997968
vt 323.292 18.7402
vt 296.951 18.7402
f 29/131/14 36/132/22 71/133/22 28/134/14 

vt 246.209 0
vt 271.779 0
vn 0.188915 0 0.981993
v 8924.98 476 15897.4
vt 271.779 18.7402
vt 246.209 18.7402
f 36/135/22 40/136/23 72/137/23 71/138/22 

vt 180.831 0
v 9501.16 0 15746
vt 204.285 0
vn 0.334805 0 0.942287
v 9501.16 476 15746
vt 204.285 18.7402
vt 180.831 18.7402
f 40/139/23 73/140/24 74/141/24 72/142/23 

v 9461.86 0 13936.4
vt -372.514 -548.679
vt -374.061 -619.923
f 40/84/1 75/143/1 73/144/1

f 40/84/1 44/88/1 75/143/1

vt -494.972 0
vn 0.322946 0 -0.946418
vt -471.321 0
vn 0.179161 0 -0.98382
v 8879.21 476 13790.1
vt -471.321 18.7402
v 9461.86 476 13936.4
vt -494.972 18.7402
f 75/145/25 44/146/26 76/147/26 77/148/25 

vt -409.135 0
vt -383.46 0
vt -383.46 18.7402
vt -409.135 18.7402
f 44/149/26 50/150/15 56/151/15 76/152/26 

v 8259.33 476 14294.1
vt 325.17 -562.759
vt 349.575 -542.916
f 56/105/9 78/153/9 76/154/9

v 8036.11 476 14262.6
vt 316.382 -561.518
f 56/105/9 79/155/9 78/153/9

v 7805.61 476 14263.8
vt 307.308 -561.566
f 56/105/9 80/156/9 79/155/9

f 56/105/9 57/104/9 80/156/9

vt -219.186 18.7402
vn -0.0781647 0 -0.99694
vt -210.342 18.7402
vn -0.229896 0 -0.973215
v 7583.54 1573 14297.6
vt -210.342 61.9291
v 7805.61 1573 14263.8
vt -219.186 61.9291
f 80/157/27 57/158/28 81/159/28 82/160/27 

vt -110.928 18.7402
vt -102.714 18.7402
vn -0.399502 0 -0.916732
v 7385.02 1573 14361.8
vt -102.714 61.9291
vt -110.928 61.9291
f 57/161/28 58/162/29 83/163/29 81/164/28 

vt 21.8047 18.7402
vt 29.0838 18.7402
vt 29.0838 61.9291
vt 21.8047 61.9291
f 58/165/29 59/166/16 61/167/16 83/168/29 

v 3898.61 1573 14739.8
vt -153.489 -580.306
v 3898.61 1573 14263.8
vt -153.489 -561.566
vt -277.705 -580.306
f 84/169/1 85/170/1 82/96/1 81/97/1 83/98/1 61/99/1 60/58/1 62/57/1 64/171/1 

v 3898.61 5043 14739.8
vt 580.306 198.543
vn -1 0 -0
v 3898.61 5043 14263.8
vt 561.566 198.543
vt 561.566 61.9291
vt 580.306 61.9291
f 86/172/30 87/173/30 85/174/30 84/175/30 

v 12190.9 5043 14739.8
vt 479.958 -580.306
v 12190.9 5043 14263.8
vt 479.958 -561.566
vt 153.489 -561.566
vt 153.489 -580.306
f 88/176/9 89/177/9 87/178/9 86/179/9 

v 12190.9 1573 14739.8
vt -580.306 61.9291
vn 1 0 -0
v 12190.9 1573 14263.8
vt -561.566 61.9291
vt -561.566 198.543
vt -580.306 198.543
f 90/180/31 91/181/31 89/182/31 88/183/31 

vt -479.958 -561.566
vn 9.82451e-17 -1 -9.13138e-17
vt -479.958 -580.306
v 8804.67 1573 14739.8
vt -346.641 -580.306
v 8803.54 1573 14675
v 8741.75 1573 14553.3
v 8624.59 1573 14444.6
v 8460.05 1573 14356.2
v 8259.33 1573 14294.1
v 8044.67 1573 14263.8
vt -316.719 -561.566
f 91/184/32 90/185/32 92/186/32 93/89/32 94/90/32 95/91/32 96/92/32 97/93/32 98/187/32 

vt 346.641 61.9291
vn 0 0 1
vt 479.958 61.9291
vt 479.958 198.543
vt 153.489 198.543
vt 153.489 61.9291
vt 277.705 61.9291
v 7805.61 1573 14739.8
vt 307.308 61.9291
v 8044.67 1573 14739.8
vt 316.719 61.9291
f 92/188/33 90/189/33 88/190/33 86/191/33 84/192/33 64/193/33 99/194/33 100/195/33 

vt -307.308 -580.306
f 82/96/1 99/196/1 64/171/1 62/57/1 60/58/1 61/99/1 83/98/1 81/97/1 

v 8036.11 1573 14262.6
vt -316.719 -580.306
f 101/95/1 98/187/1 100/197/1 99/196/1 82/96/1 

vt -400.648 18.7402
vn 0.218348 -1.88762e-17 -0.975871
vt -391.773 18.7402
vn 0.0674557 -1.8866e-17 -0.997722
vt -391.773 61.9291
vt -392.113 61.9291
vn 0.139794 -3.76321e-17 -0.990181
vt -400.648 61.9291
f 78/198/34 79/199/35 101/200/35 98/201/36 97/202/34 

vt -313.436 18.7402
vt -304.361 18.7402
vt -304.361 61.9291
vt -313.436 61.9291
f 79/203/35 80/204/27 82/205/27 101/206/35 

f 93/89/1 92/186/1 100/197/1 98/187/1 97/93/1 96/92/1 95/91/1 94/90/1 

v 8805.74 476 14801.3
vt -588.691 18.7402
vn 0.977792 6.84563e-17 0.209578
v 8803.54 476 14675
vt -583.719 18.7402
vn 0.970451 6.84189e-17 -0.241299
vt -583.719 61.9291
vt -586.269 61.9291
vn 0.999848 1.33351e-16 -0.0174588
v 8805.74 1573 14801.3
vt -588.691 61.9291
f 102/207/37 103/208/38 93/209/38 92/210/39 104/211/37 

vt 346.596 -577.756
vt 346.683 -582.727
f 76/154/9 103/212/9 102/213/9

v 8741.75 476 14553.3
vt 344.163 -572.966
f 76/154/9 105/214/9 103/212/9

v 8624.59 476 14444.6
vt 339.551 -568.685
f 76/154/9 106/215/9 105/214/9

v 8460.05 476 14356.2
vt 333.073 -565.203
f 76/154/9 107/216/9 106/215/9

f 76/154/9 78/153/9 107/216/9

vt -485.221 18.7402
vn 0.386249 0 -0.922395
vt -476.949 18.7402
vt -476.949 61.9291
vt -485.221 61.9291
f 107/217/40 78/218/34 97/219/34 96/220/40 

vt -568.303 18.7402
vn 0.581569 0 -0.813497
vt -560.949 18.7402
vt -560.949 61.9291
vt -568.303 61.9291
f 106/221/41 107/222/40 96/223/40 95/224/41 

vt -642.039 18.7402
vn 0.798328 0 -0.602223
vt -635.746 18.7402
vt -635.746 61.9291
vt -642.039 61.9291
f 105/225/42 106/226/41 95/227/41 94/228/42 

vt -672.075 18.7402
vt -666.703 18.7402
vt -666.703 61.9291
vt -672.075 61.9291
f 103/229/38 105/230/42 94/231/42 93/232/38 

vt 351.377 -625.882
f 102/213/9 72/233/9 76/154/9

v 8748.22 476 14923.5
vt 344.418 -587.541
f 108/234/9 72/233/9 102/213/9

v 8634.88 476 15033.5
vt 339.956 -591.87
f 109/235/9 72/233/9 108/234/9

v 8473.45 476 15123.6
vt 333.6 -595.418
f 110/236/9 72/233/9 109/235/9

f 110/236/9 71/130/9 72/233/9

v 8274.93 476 15187.8
vt 325.785 -597.945
f 111/237/9 71/130/9 110/236/9

v 8052.86 476 15221.7
vt 317.042 -599.278
f 112/238/9 71/130/9 111/237/9

f 70/129/9 71/130/9 112/238/9

vt 304.822 18.7402
vn -0.0674557 0 0.997722
vt 313.897 18.7402
vn 0.0781647 0 0.99694
v 8052.86 1573 15221.7
vt 313.897 61.9291
v 7822.36 1573 15222.9
vt 304.822 61.9291
f 70/239/43 112/240/44 113/241/44 114/242/43 

vt 223.127 18.7402
vt 231.971 18.7402
vn 0.229896 0 0.973215
v 8274.93 1573 15187.8
vt 231.971 61.9291
vt 223.127 61.9291
f 112/243/44 111/244/45 115/245/45 113/246/44 

vt 126.047 18.7402
vt 134.261 18.7402
vn 0.399502 0 0.916732
v 8473.45 1573 15123.6
vt 134.261 61.9291
vt 126.047 61.9291
f 111/247/45 110/248/46 116/249/46 115/250/45 

vt 0.98655 18.7402
vt 8.26565 18.7402
vn 0.596992 0 0.802247
v 8634.88 1573 15033.5
vt 8.26565 61.9291
vt 0.98655 61.9291
f 110/251/46 109/252/47 117/253/47 116/254/46 

vt -168.121 18.7402
vt -161.904 18.7402
vn 0.81379 0 0.581159
v 8748.22 1573 14923.5
vt -161.904 61.9291
vt -168.121 61.9291
f 109/255/47 108/256/48 118/257/48 117/258/47 

vt -385.02 18.7402
vt -379.7 18.7402
vt -379.7 61.9291
vt -385.02 61.9291
f 108/259/48 102/260/37 104/261/37 118/262/48 

v 7599.14 1573 15191.3
v 7398.42 1573 15129.3
v 7233.88 1573 15040.8
f 63/73/1 64/171/1 99/196/1 100/197/1 92/186/1 104/87/1 118/86/1 117/85/1 116/83/1 115/82/1 113/81/1 114/79/1 119/78/1 120/77/1 121/76/1 66/75/1 

vt 379.85 18.7402
vn -0.218348 0 0.975871
vt 388.725 18.7402
vt 388.725 61.9291
vt 379.85 61.9291
f 69/263/49 70/264/43 114/265/43 119/266/49 

vt 454.286 18.7402
vn -0.386249 0 0.922395
vt 462.557 18.7402
vt 462.557 61.9291
vt 454.286 61.9291
f 68/267/50 69/268/49 119/269/49 120/270/50 

vt 531.187 18.7402
vn -0.581569 0 0.813497
vt 538.541 18.7402
vt 538.541 61.9291
vt 531.187 61.9291
f 67/271/51 68/272/50 120/273/50 121/274/51 

vt 605.292 18.7402
vt 611.585 18.7402
vt 611.585 61.9291
vt 605.292 61.9291
f 65/275/21 67/276/51 121/277/51 66/278/21 

vt 372.514 -548.679
f 76/154/9 72/233/9 77/279/9

vt 374.061 -619.923
f 77/279/9 72/233/9 74/280/9

v 9939.51 476 14144.9
vt 391.319 -556.887
f 77/279/9 74/280/9 122/281/9

v 9969.67 476 15533.5
vt 392.507 -611.555
f 122/281/9 74/280/9 123/282/9

vt 84.5198 0
v 9969.67 0 15533.5
vt 104.775 0
vn 0.519894 0 0.854231
vt 104.775 18.7402
vt 84.5198 18.7402
f 73/283/24 124/284/52 123/285/52 74/286/24 

v 9939.51 0 14144.9
vt -391.319 -556.887
vt -392.507 -611.555
f 73/144/1 125/287/1 124/288/1

f 73/144/1 75/143/1 125/287/1

vt -581.418 0
vn 0.504459 0 -0.863435
vt -560.9 0
vt -560.9 18.7402
vt -581.418 18.7402
f 125/289/53 75/290/25 77/291/25 122/292/53 

v 10279.6 0 14401.3
vt -664.472 0
vn 0.737194 0 -0.675681
vt -647.703 0
vt -647.703 18.7402
v 10279.6 476 14401.3
vt -664.472 18.7402
f 126/293/54 125/294/53 122/295/53 127/296/54 

vt -404.71 -566.981
f 124/288/1 125/287/1 126/297/1

v 10298.6 0 15274.2
vt -405.456 -601.347
f 124/288/1 126/297/1 128/298/1

v 10459 0 14688.2
vt -411.773 -578.274
f 128/298/1 126/297/1 129/299/1

vt -708.629 0
vn 0.958151 0 -0.286264
vt -695.309 0
vt -695.309 18.7402
v 10459 476 14688.2
vt -708.629 18.7402
f 129/300/55 126/301/54 127/302/54 130/303/55 

vt 404.71 -566.981
v 10298.6 476 15274.2
vt 405.456 -601.347
vt 411.773 -578.274
f 127/304/9 131/305/9 130/306/9

f 127/304/9 123/282/9 131/305/9

f 122/281/9 123/282/9 127/304/9

vt -70.3324 0
vt -53.8432 0
vn 0.755739 0 0.654873
vt -53.8432 18.7402
vt -70.3324 18.7402
f 124/307/52 128/308/56 131/309/56 123/310/52 

vt -317.288 0
v 10465.5 0 14985.9
vt -304.172 0
vn 0.968533 0 0.248886
v 10465.5 476 14985.9
vt -304.172 18.7402
vt -317.288 18.7402
f 128/311/56 132/312/57 133/313/57 131/314/56 

vt -412.028 -589.996
f 128/298/1 129/299/1 132/315/1

vt -598.802 0
vt -587.078 0
vt -587.078 18.7402
vt -598.802 18.7402
f 132/316/57 129/317/55 130/318/55 133/319/57 

vt 412.028 -589.996
f 130/306/9 131/305/9 133/320/9

vt -316.719 61.9291
vn 0 0 -1
v 4145.08 1734.35 14263.8
vt -163.192 68.2815
vt -479.958 61.9291
f 98/321/58 134/322/58 91/323/58

vt -307.308 61.9291
f 82/324/58 134/322/58 98/321/58

vt -153.489 61.9291
f 85/325/58 134/322/58 82/324/58

vt -153.489 198.543
f 134/322/58 85/325/58 87/326/58

v 4145.08 4869.35 14263.8
vt -163.192 191.707
f 134/322/58 87/326/58 135/327/58

v 12020.1 4869.35 14263.8
vt -473.232 191.707
f 135/327/58 87/326/58 136/328/58

vt -479.958 198.543
f 89/329/58 136/328/58 87/326/58

v 12020.1 1734.35 14263.8
vt -473.232 68.2815
f 89/329/58 137/330/58 136/328/58

f 91/323/58 137/330/58 89/329/58

f 137/330/58 91/323/58 134/322/58

v 12020.1 1734.35 15208.8
vt 473.232 -598.77
vt 473.232 -561.566
vt 163.192 -561.566
v 4145.08 1734.35 15208.8
vt 163.192 -598.77
f 138/331/9 137/332/9 134/333/9 139/334/9 

v 12020.1 4869.35 15208.8
vt 598.77 191.707
vt 561.566 191.707
vt 561.566 68.2815
vt 598.77 68.2815
f 140/335/30 136/336/30 137/337/30 138/338/30 

v 4145.08 4869.35 15208.8
vt -163.192 -598.77
vt -163.192 -561.566
vt -473.232 -561.566
vt -473.232 -598.77
f 141/339/1 135/340/1 136/341/1 140/342/1 

vt -598.77 68.2815
vt -561.566 68.2815
vt -561.566 191.707
vt -598.77 191.707
f 139/343/31 134/344/31 135/345/31 141/346/31 

f 140/328/58 138/330/58 139/322/58 141/327/58 

