# Alias OBJ Model File
# Exported from SketchUp, (c) 2000-2012 Trimble Navigation Limited
# File units = inches

mtllib monitor.mtl

g Mesh1 Model

usemtl Color_D05
v -222.731 6719.55 -13756.7
vt -13756.7 6695.55
vn -0.992332 -0.123601 -0
v 9.77883 4852.85 -13756.7
vt -13756.7 4814.43
v 9.77883 4852.85 -10815.6
vt -10815.6 4814.43
v -222.731 6719.55 -10815.6
vt -10815.6 6695.55
f 1/1/1 2/2/1 3/3/1 4/4/1 

vt -222.731 6719.55
vn 0 0 1
vt 9.77883 4852.85
v 150.504 4870.38 -13756.7
vt 150.504 4870.38
v -82.0059 6737.08 -13756.7
vt -82.0059 6737.08
f 1/5/2 2/6/2 5/7/2 6/8/2 

vt -13756.7 609.523
vn -0.123601 0.992332 -0
vt -10815.6 609.523
v 150.504 4870.38 -10815.6
vt -10815.6 751.336
vt -13756.7 751.336
f 2/9/3 3/10/3 7/11/3 5/12/3 

vt -9.77883 4852.85
vn 0 0 -1
vt 222.731 6719.55
v -82.0059 6737.08 -10815.6
vt 82.0059 6737.08
vt -150.504 4870.38
f 3/13/4 4/14/4 8/15/4 7/16/4 

vt 10815.6 609.523
vn 0.123601 -0.992332 -0
vt 13756.7 609.523
vt 13756.7 751.336
vt 10815.6 751.336
f 4/17/5 1/18/5 6/19/5 8/20/5 

v 43.8962 6752.76 -10815.6
vt 10815.6 878.211
vn 0.123601 -0.992332 -1.71424e-20
v 43.8962 6752.76 -13756.7
vt 13756.7 878.211
f 9/21/6 8/20/6 6/19/6 10/22/6 

v 276.406 4886.06 -10815.6
vt -276.406 4886.06
vt -43.8962 6752.76
f 11/23/4 7/16/4 8/15/4 9/24/4 

v 276.406 4886.06 -13756.7
vt -13756.7 878.211
vn -0.123601 0.992332 6.0492e-20
vt -10815.6 878.211
f 12/25/7 5/12/7 7/11/7 11/26/7 

vt 43.8962 6752.76
vt 276.406 4886.06
f 10/27/2 6/8/2 5/7/2 12/28/2 

v -92.9973 6825.32 -13855.8
vt -13855.8 6784.48
f 6/1/1 13/29/1 5/2/1

f 8/4/1 13/29/1 6/1/1

v -92.9973 6825.32 -10714.7
vt -10714.7 6784.48
f 8/4/1 14/30/1 13/29/1

v 162.889 4770.95 -10714.7
vt -10714.7 4714.23
f 14/30/1 8/4/1 15/31/1

f 7/3/1 15/31/1 8/4/1

v 162.889 4770.95 -13855.8
vt -13855.8 4714.23
f 15/31/1 7/3/1 16/32/1

f 16/32/1 7/3/1 5/2/1

f 16/32/1 5/2/1 13/29/1

v 288.791 4786.63 -13855.8
vt -288.791 4786.63
vt -162.889 4770.95
vt 92.9973 6825.32
v 32.9048 6841 -13855.8
vt -32.9048 6841
f 17/33/4 16/34/4 13/35/4 18/36/4 

v 288.791 4786.63 -10714.7
vt 10714.7 878.211
vt 10714.7 751.336
vt 13855.8 751.336
vt 13855.8 878.211
f 19/37/5 15/38/5 16/39/5 17/40/5 

v 32.9048 6841 -10714.7
vt 32.9048 6841
vt -92.9973 6825.32
vt 162.889 4770.95
vt 288.791 4786.63
f 20/41/2 14/42/2 15/43/2 19/44/2 

vt -13855.8 878.211
vt -13855.8 751.336
vt -10714.7 751.336
vt -10714.7 878.211
f 18/45/3 13/46/3 14/47/3 20/48/3 

vt 10714.7 6784.48
vn 0.992332 0.123601 -0
vt 10815.6 6695.55
vt 13855.8 6784.48
f 20/49/8 9/50/8 18/51/8

vt 10815.6 4814.43
f 9/50/8 20/49/8 11/52/8

vt 10714.7 4714.23
f 19/53/8 11/52/8 20/49/8

vt 13855.8 4714.23
f 11/52/8 19/53/8 17/54/8

vt 13756.7 4814.43
f 11/52/8 17/54/8 12/55/8

vt 13756.7 6695.55
f 12/55/8 17/54/8 10/56/8

f 18/51/8 10/56/8 17/54/8

f 18/51/8 9/50/8 10/56/8

g Mesh2 Model

v -353.618 5190.13 -12621.9
vt -353.618 12621.9
vn 0 1 -0
v -395.219 5190.13 -12569.1
vt -395.219 12569.1
v -427.141 5190.13 -12500.3
vt -427.141 12500.3
v -447.208 5190.13 -12420.2
vt -447.208 12420.2
v -454.053 5190.13 -12334.3
vt -454.053 12334.3
v -447.208 5190.13 -12248.3
vt -447.208 12248.3
v -427.141 5190.13 -12168.2
vt -427.141 12168.2
v -395.219 5190.13 -12099.4
vt -395.219 12099.4
v -353.618 5190.13 -12046.6
vt -353.618 12046.6
v -305.172 5190.13 -12013.5
vt -305.172 12013.5
v -253.183 5190.13 -12002.2
vt -253.183 12002.2
v -201.195 5190.13 -12013.5
vt -201.195 12013.5
v -152.749 5190.13 -12046.6
vt -152.749 12046.6
v -111.147 5190.13 -12099.4
vt -111.147 12099.4
v -79.2255 5190.13 -12168.2
vt -79.2255 12168.2
v -59.1586 5190.13 -12248.3
vt -59.1586 12248.3
v -52.3141 5190.13 -12334.3
vt -52.3141 12334.3
v -59.1586 5190.13 -12420.2
vt -59.1586 12420.2
v -79.2255 5190.13 -12500.3
vt -79.2255 12500.3
v -111.147 5190.13 -12569.1
vt -111.147 12569.1
v -152.749 5190.13 -12621.9
vt -152.749 12621.9
v -201.195 5190.13 -12655.1
vt -201.195 12655.1
v -253.183 5190.13 -12666.4
vt -253.183 12666.4
v -305.172 5190.13 -12655.1
vt -305.172 12655.1
f 21/57/9 22/58/9 23/59/9 24/60/9 25/61/9 26/62/9 27/63/9 28/64/9 29/65/9 30/66/9 31/67/9 32/68/9 33/69/9 34/70/9 35/71/9 36/72/9 37/73/9 38/74/9 39/75/9 40/76/9 41/77/9 42/78/9 43/79/9 44/80/9 

v -353.618 4467.63 -12621.9
vt -9694 4467.63
vn -0.683028 0 -0.730392
v -395.219 4467.63 -12569.1
vt -9626.8 4467.63
vn -0.852002 0 -0.523539
vt -9626.8 5190.13
vt -9694 5190.13
f 45/81/10 46/82/11 22/83/11 21/84/10 

usemtl FrontColor
vt 395.219 12569.1
vn 0 -1 -0
vt 353.618 12621.9
v -305.172 4467.63 -12655.1
vt 305.172 12655.1
v -253.183 4467.63 -12666.4
vt 253.183 12666.4
v -201.195 4467.63 -12655.1
vt 201.195 12655.1
v -152.749 4467.63 -12621.9
vt 152.749 12621.9
v -111.147 4467.63 -12569.1
vt 111.147 12569.1
v -79.2255 4467.63 -12500.3
vt 79.2255 12500.3
v -59.1586 4467.63 -12420.2
vt 59.1586 12420.2
v -52.3141 4467.63 -12334.3
vt 52.3141 12334.3
v -59.1586 4467.63 -12248.3
vt 59.1586 12248.3
v -79.2255 4467.63 -12168.2
vt 79.2255 12168.2
v -111.147 4467.63 -12099.4
vt 111.147 12099.4
v -152.749 4467.63 -12046.6
vt 152.749 12046.6
v -201.195 4467.63 -12013.5
vt 201.195 12013.5
v -253.183 4467.63 -12002.2
vt 253.183 12002.2
v -305.172 4467.63 -12013.5
vt 305.172 12013.5
v -353.618 4467.63 -12046.6
vt 353.618 12046.6
v -395.219 4467.63 -12099.4
vt 395.219 12099.4
v -427.141 4467.63 -12168.2
vt 427.141 12168.2
v -447.208 4467.63 -12248.3
vt 447.208 12248.3
v -454.053 4467.63 -12334.3
vt 454.053 12334.3
v -447.208 4467.63 -12420.2
vt 447.208 12420.2
v -427.141 4467.63 -12500.3
vt 427.141 12500.3
f 46/85/12 45/86/12 47/87/12 48/88/12 49/89/12 50/90/12 51/91/12 52/92/12 53/93/12 54/94/12 55/95/12 56/96/12 57/97/12 58/98/12 59/99/12 60/100/12 61/101/12 62/102/12 63/103/12 64/104/12 65/105/12 66/106/12 67/107/12 68/108/12 

usemtl Color_D05
vt -6899.08 4467.63
vn -0.396242 0 -0.918146
vt -6840.36 4467.63
vt -6840.36 5190.13
vt -6899.08 5190.13
f 47/109/13 45/110/10 21/111/10 44/112/13 

vt -2446.73 4467.63
vt -2393.53 4467.63
vt -2393.53 5190.13
vt -2446.73 5190.13
f 48/113/4 47/114/13 44/115/13 43/116/4 

vt 2888.31 4467.63
vn 0.396242 0 -0.918146
vt 2941.51 4467.63
vt 2941.51 5190.13
vt 2888.31 5190.13
f 49/117/14 48/118/4 43/119/4 42/120/14 

vt 7258.14 4467.63
vn 0.683028 0 -0.730392
vt 7316.86 4467.63
vt 7316.86 5190.13
vt 7258.14 5190.13
f 50/121/15 49/122/14 42/123/14 41/124/15 

vt 9940.25 4467.63
vn 0.852002 0 -0.523539
vt 10007.5 4467.63
vt 10007.5 5190.13
vt 9940.25 5190.13
f 51/125/16 50/126/15 41/127/15 40/128/16 

vt 11372.2 4467.63
vn 0.94276 0 -0.333471
vt 11448 4467.63
vt 11448 5190.13
vt 11372.2 5190.13
f 52/129/17 51/130/16 40/131/16 39/132/17 

vt 12062.3 4467.63
vn 0.986832 0 -0.161746
vt 12144.9 4467.63
vt 12144.9 5190.13
vt 12062.3 5190.13
f 53/133/18 52/134/17 39/135/17 38/136/18 

vt 12299.5 4467.63
vn 1 0 -0
vt 12385.7 4467.63
vt 12385.7 5190.13
vt 12299.5 5190.13
f 54/137/19 53/138/18 38/139/18 37/140/19 

vt 12205 4467.63
vn 0.986832 0 0.161746
vt 12291.2 4467.63
vt 12291.2 5190.13
vt 12205 5190.13
f 55/141/20 54/142/19 37/143/19 36/144/20 

vt 11784.2 4467.63
vn 0.94276 0 0.333471
vt 11866.8 4467.63
vt 11866.8 5190.13
vt 11784.2 5190.13
f 56/145/21 55/146/20 36/147/20 35/148/21 

vt 10928.4 4467.63
vn 0.852002 0 0.523539
vt 11004.2 4467.63
vt 11004.2 5190.13
vt 10928.4 5190.13
f 57/149/22 56/150/21 35/151/21 34/152/22 

vt 9366.55 4467.63
vn 0.683028 0 0.730392
vt 9433.76 4467.63
vt 9433.76 5190.13
vt 9366.55 5190.13
f 58/153/23 57/154/22 34/155/22 33/156/23 

vt 6622.32 4467.63
vn 0.396242 0 0.918146
vt 6681.03 4467.63
vt 6681.03 5190.13
vt 6622.32 5190.13
f 59/157/24 58/158/23 33/159/23 32/160/24 

vt 2305.45 4467.63
vt 2358.66 4467.63
vt 2358.66 5190.13
vt 2305.45 5190.13
f 60/161/2 59/162/24 32/163/24 31/164/2 

vt -2853.44 4467.63
vn -0.396242 0 0.918146
vt -2800.23 4467.63
vt -2800.23 5190.13
vt -2853.44 5190.13
f 61/165/25 60/166/2 31/167/2 30/168/25 

vt -7098.81 4467.63
vn -0.683028 0 0.730392
vt -7040.09 4467.63
vt -7040.09 5190.13
vt -7098.81 5190.13
f 62/169/26 61/170/25 30/171/25 29/172/26 

vt -9747.21 4467.63
vn -0.852002 0 0.523539
vt -9680.01 4467.63
vt -9680.01 5190.13
vt -9747.21 5190.13
f 63/173/27 62/174/26 29/175/26 28/176/27 

vt -11217.4 4467.63
vn -0.94276 0 0.333471
vt -11141.5 4467.63
vt -11141.5 5190.13
vt -11217.4 5190.13
f 64/177/28 63/178/27 28/179/27 27/180/28 

vt -11989.8 4467.63
vn -0.986832 0 0.161746
vt -11907.3 4467.63
vt -11907.3 5190.13
vt -11989.8 5190.13
f 65/181/29 64/182/28 27/183/28 26/184/29 

vt -12331.4 4467.63
vn -1 0 -0
vt -12245.2 4467.63
vt -12245.2 5190.13
vt -12331.4 5190.13
f 66/185/30 65/186/29 26/187/29 25/188/30 

vt -12345.6 4467.63
vn -0.986832 0 -0.161746
vt -12259.3 4467.63
vt -12259.3 5190.13
vt -12345.6 5190.13
f 67/189/31 66/190/30 25/191/30 24/192/31 

vt -12021.8 4467.63
vn -0.94276 0 -0.333471
vt -11939.3 4467.63
vt -11939.3 5190.13
vt -12021.8 5190.13
f 68/193/32 67/194/31 24/195/31 23/196/32 

vt -11234.8 4467.63
vt -11159 4467.63
vt -11159 5190.13
vt -11234.8 5190.13
f 46/197/11 68/198/32 23/199/32 22/200/11 

g Mesh3 Model

v 335.443 4326.69 -13195.6
vt -335.443 13195.6
v 335.443 4326.69 -11514.5
vt -335.443 11514.5
v -751.995 4326.69 -11514.5
vt 751.995 11514.5
v -751.995 4326.69 -13195.6
vt 751.995 13195.6
f 69/201/12 70/202/12 71/203/12 72/204/12 

vt 11514.5 4326.69
vt 13195.6 4326.69
v 335.443 4516.63 -13195.6
vt 13195.6 4516.63
v 335.443 4516.63 -11514.5
vt 11514.5 4516.63
f 70/205/19 69/206/19 73/207/19 74/208/19 

vt -335.443 4326.69
vt 751.995 4326.69
v -751.995 4516.63 -13195.6
vt 751.995 4516.63
vt -335.443 4516.63
f 69/209/4 72/210/4 75/211/4 73/212/4 

vt -13195.6 4326.69
vt -11514.5 4326.69
v -751.995 4516.63 -11514.5
vt -11514.5 4516.63
vt -13195.6 4516.63
f 72/213/30 71/214/30 76/215/30 75/216/30 

vt -751.995 4326.69
vt 335.443 4326.69
vt 335.443 4516.63
vt -751.995 4516.63
f 71/217/2 70/218/2 74/219/2 76/220/2 

vt 335.443 11514.5
vt 335.443 13195.6
vt -751.995 13195.6
vt -751.995 11514.5
f 74/221/9 73/222/9 75/223/9 76/224/9 

