# Alias OBJ Model File
# Exported from SketchUp, (c) 2000-2012 Trimble Navigation Limited
# File units = inches

mtllib policka.mtl

g Mesh1 Model

usemtl Color_D05
v 0 24800.9 -25036.8
vt -25036.8 24800.9
vn -1 0 -0
v 0 14366.2 -25036.8
vt -25036.8 14366.2
v 0 14366.2 -12846.3
vt -12846.3 14366.2
v 0 15232.3 -12846.3
vt -12846.3 15232.3
v 0 24800.9 -12846.3
vt -12846.3 24800.9
f 1/1/1 2/2/1 3/3/1 4/4/1 5/5/1 

v 0 25597.7 -26012.3
vt -26012.3 25597.7
v 0 2201.24 -26012.3
vt -26012.3 2201.24
v 0 2201.24 -25036.8
vt -25036.8 2201.24
v 0 3067.31 -25036.8
vt -25036.8 3067.31
v 0 25597.7 -25036.8
vt -25036.8 25597.7
f 6/6/1 7/7/1 8/8/1 9/9/1 2/2/1 1/1/1 10/10/1 

vt 0 2201.24
vn 0 0 -1
vt 0 25597.7
v 737.313 25597.7 -26012.3
vt -737.313 25597.7
v 737.313 2201.24 -26012.3
vt -737.313 2201.24
f 7/11/2 6/12/2 11/13/2 12/14/2 

v -11477.5 2201.24 -26012.3
vt 11477.5 2201.24
v -11477.5 25597.7 -26012.3
vt 11477.5 25597.7
f 7/11/2 13/15/2 14/16/2 6/12/2 

vt 11477.5 26012.3
vn 0 -1 -0
vt 0 26012.3
vt 0 25036.8
v -11477.5 2201.24 -25036.8
vt 11477.5 25036.8
f 13/17/3 7/18/3 8/19/3 15/20/3 

vt -737.313 26012.3
v 737.313 2201.24 -12846.3
vt -737.313 12846.3
v 0 2201.24 -12846.3
vt 0 12846.3
f 8/19/3 7/18/3 12/21/3 16/22/3 17/23/3 

vt 12846.3 2201.24
vn 1 0 -0
vt 26012.3 2201.24
vt 26012.3 25597.7
v 737.313 25597.7 -12846.3
vt 12846.3 25597.7
f 16/24/4 12/25/4 11/26/4 18/27/4 

vn 0 1 -0
v 0 25597.7 -12846.3
vt 737.313 12846.3
vt 737.313 26012.3
f 10/19/5 19/23/5 18/28/5 11/29/5 6/18/5 

v -11477.5 25597.7 -12846.3
vt -11477.5 12846.3
v -11477.5 25597.7 -25036.8
vt -11477.5 25036.8
f 20/30/5 19/23/5 10/19/5 21/31/5 

vn 0 0 1
vt -11477.5 25597.7
v -11477.5 24800.9 -12846.3
vt -11477.5 24800.9
vt 0 24800.9
f 19/12/6 20/32/6 22/33/6 5/34/6 

v -12214.9 25597.7 -12846.3
vt -12214.9 25597.7
v -12214.9 2201.24 -12846.3
vt -12214.9 2201.24
v -11477.5 2201.24 -12846.3
vt -11477.5 2201.24
v -11477.5 3067.31 -12846.3
vt -11477.5 3067.31
v -11477.5 14366.2 -12846.3
vt -11477.5 14366.2
v -11477.5 15232.3 -12846.3
vt -11477.5 15232.3
f 23/35/6 24/36/6 25/37/6 26/38/6 27/39/6 28/40/6 22/33/6 20/32/6 

v -12214.9 2201.24 -26012.3
vt -12846.3 2201.24
vt -12846.3 25597.7
v -12214.9 25597.7 -26012.3
f 29/7/1 24/41/1 23/42/1 30/6/1 

vt 12214.9 12846.3
vt 12214.9 26012.3
vt 11477.5 12846.3
f 24/43/3 29/44/3 13/17/3 15/20/3 25/45/3 

vt 12214.9 2201.24
vt 12214.9 25597.7
f 29/46/2 30/47/2 14/16/2 13/15/2 

vt -12214.9 26012.3
vt -12214.9 12846.3
vt -11477.5 26012.3
f 30/48/5 23/49/5 20/30/5 21/31/5 14/50/5 

vt 25036.8 25597.7
vt 12846.3 24800.9
v -11477.5 24800.9 -25036.8
vt 25036.8 24800.9
f 21/51/4 20/27/4 22/52/4 31/53/4 

f 5/23/3 22/45/3 31/20/3 1/19/3 

vt 12846.3 15232.3
vt 12846.3 14366.2
v -11477.5 14366.2 -25036.8
vt 25036.8 14366.2
f 28/54/4 27/55/4 32/56/4 31/53/4 22/52/4 

vt 0 14366.2
vt 0 15232.3
f 27/39/6 3/57/6 4/58/6 28/40/6 

f 3/23/3 27/45/3 32/20/3 2/19/3 

v -11477.5 3067.31 -25036.8
vt 25036.8 3067.31
vt 12846.3 3067.31
f 33/59/4 32/56/4 27/55/4 26/60/4 

vt 0 3067.31
f 9/61/6 2/57/6 32/39/6 33/38/6 

v 0 3067.31 -12846.3
vt -12846.3 3067.31
f 34/62/1 3/3/1 2/2/1 9/9/1 

vt 737.313 2201.24
vt 737.313 25597.7
f 34/61/6 17/11/6 16/63/6 18/64/6 19/12/6 5/34/6 4/58/6 3/57/6 

f 25/37/6 17/11/6 34/61/6 26/38/6 

f 17/23/3 25/45/3 15/20/3 8/19/3 

vt 25036.8 2201.24
f 25/24/4 15/65/4 33/59/4 26/60/4 

f 13/25/4 14/26/4 21/51/4 31/53/4 32/56/4 33/59/4 15/65/4 

f 6/18/5 14/50/5 21/31/5 10/19/5 

f 10/12/6 21/32/6 31/33/6 1/34/6 

f 31/33/6 32/39/6 2/57/6 1/34/6 

f 19/42/1 10/10/1 1/1/1 5/5/1 

f 15/37/6 8/11/6 9/61/6 33/38/6 

f 8/8/1 17/41/1 34/62/1 9/9/1 

f 26/30/5 34/23/5 9/19/5 33/31/5 

