# Alias OBJ Model File
# Exported from SketchUp, (c) 2000-2006 Google, Inc.
# File units = inches

mtllib school.mtl

g Mesh1 Model

usemtl FrontColor
v -10.0066 -0.680625 -0
vt 10.0066 0
vn 0 -1 -0
v -10.0066 -0.680625 -0.336875
vt 10.0066 0.336875
v 10.0066 -0.680625 -0.336875
vt -10.0066 0.336875
v 10.0066 -0.680625 -0
vt -10.0066 0
f 1/1/1 2/2/1 3/3/1 4/4/1 

usemtl Color_B11
v -10.0066 0 -7.90625
vt -7.90625 0
vn -1 0 -0
v -10.0066 -0.543125 -7.90625
vt -7.90625 -0.543125
v -10.0066 -0.543125 -0.336875
vt -0.336875 -0.543125
vt -0.336875 -0.680625
vt 0 -0.680625
v -10.0066 0 -0
vt 0 0
f 5/5/2 6/6/2 7/7/2 2/8/2 1/9/2 8/10/2 

v 10.0066 0 -7.90625
vn 0 0 -1
v 10.0066 -0.543125 -7.90625
vt -10.0066 -0.543125
vt 10.0066 -0.543125
f 9/4/3 10/11/3 6/12/3 5/1/3 

vn 1 0 -0
vt 0.336875 -0.680625
v 10.0066 -0.543125 -0.336875
vt 0.336875 -0.543125
vt 7.90625 -0.543125
vt 7.90625 0
v 10.0066 0 -0
f 4/9/4 3/13/4 11/14/4 10/15/4 9/16/4 12/10/4 

v 10.0066 -0.680625 0.01375
vt -0.01375 -0.680625
v 10.0066 -1.0177 0.01375
vt -0.01375 -1.0177
v 10.0066 -2.41911 0.01375
vt -0.01375 -2.41911
v 10.0066 -3.33927 0.01375
vt -0.01375 -3.33927
v 10.0066 -3.82052 0.01375
vt -0.01375 -3.82052
v 10.0066 -3.82052 -0.336875
vt 0.336875 -3.82052
f 13/17/4 14/18/4 15/19/4 16/20/4 17/21/4 18/22/4 3/13/4 4/9/4 

usemtl Color_C20
v -10.0066 -0.680625 0.01375
vt -10.0066 -0.680625
vn 0 0 1
v -10.0066 -1.0177 0.01375
vt -10.0066 -1.0177
vt 10.0066 -1.0177
vt 10.0066 -0.680625
f 19/23/5 20/24/5 14/25/5 13/26/5 

usemtl Color_B11
v -10.0066 -3.82052 0.01375
vt 0.01375 -3.82052
v -10.0066 -2.41911 0.01375
vt 0.01375 -2.41911
vt 0.01375 -1.0177
vt 0.01375 -0.680625
v -10.0066 -3.82052 -0.336875
vt -0.336875 -3.82052
f 21/27/2 22/28/2 20/29/2 19/30/2 1/9/2 2/8/2 23/31/2 

usemtl Color_C20
vt 10.0066 -3.33927
vt 10.0066 -2.41911
vt -10.0066 -2.41911
vt -10.0066 -3.82052
v -9.61469 -3.82052 0.01375
vt -9.61469 -3.82052
v -9.38848 -3.82052 0.01375
vt -9.38848 -3.82052
v -9.38848 -3.18802 0.01375
vt -9.38848 -3.18802
v -6.2741 -3.18802 0.01375
vt -6.2741 -3.18802
v -6.2741 -3.82052 0.01375
vt -6.2741 -3.82052
v -5.85368 -3.82052 0.01375
vt -5.85368 -3.82052
v -5.85368 -3.39427 0.01375
vt -5.85368 -3.39427
v -5.28305 -3.39427 0.01375
vt -5.28305 -3.39427
v -5.28305 -3.82052 0.01375
vt -5.28305 -3.82052
v -4.86454 -3.82052 0.01375
vt -4.86454 -3.82052
v -4.86454 -3.18114 0.01375
vt -4.86454 -3.18114
v -1.65392 -3.18114 0.01375
vt -1.65392 -3.18114
v -1.65392 -3.82052 0.01375
vt -1.65392 -3.82052
v -1.04654 -3.82052 0.01375
vt -1.04654 -3.82052
v -1.04654 -3.34614 0.01375
vt -1.04654 -3.34614
v -0.551539 -3.34614 0.01375
vt -0.551539 -3.34614
v -0.551539 -3.82052 0.01375
vt -0.551539 -3.82052
v 0.0801625 -3.82052 0.01375
vt 0.0801625 -3.82052
v 0.0801625 -3.22239 0.01375
vt 0.0801625 -3.22239
v 3.69641 -3.22239 0.01375
vt 3.69641 -3.22239
v 3.69641 -3.82052 0.01375
vt 3.69641 -3.82052
v 4.24612 -3.82052 0.01375
vt 4.24612 -3.82052
v 4.24612 -3.35989 0.01375
vt 4.24612 -3.35989
v 4.88549 -3.35989 0.01375
vt 4.88549 -3.35989
v 4.88549 -3.82052 0.01375
vt 4.88549 -3.82052
v 5.33932 -3.82052 0.01375
vt 5.33932 -3.82052
v 5.33932 -3.23614 0.01375
vt 5.33932 -3.23614
v 8.92807 -3.23614 0.01375
vt 8.92807 -3.23614
v 8.92807 -3.82052 0.01375
vt 8.92807 -3.82052
v 9.55281 -3.82052 0.01375
vt 9.55281 -3.82052
v 9.55281 -3.33927 0.01375
vt 9.55281 -3.33927
f 16/32/5 15/33/5 22/34/5 21/35/5 24/36/5 25/37/5 26/38/5 27/39/5 28/40/5 29/41/5 30/42/5 31/43/5 32/44/5 33/45/5 34/46/5 35/47/5 36/48/5 37/49/5 38/50/5 39/51/5 40/52/5 41/53/5 42/54/5 43/55/5 44/56/5 45/57/5 46/58/5 47/59/5 48/60/5 49/61/5 50/62/5 51/63/5 52/64/5 53/65/5 54/66/5 

usemtl Color_I06
vt 10.0066 -0.01375
vt -10.0066 -0.01375
v 10.0066 -2.41911 0.350625
vt -10.0066 -0.350625
v -10.0066 -2.41911 0.350625
vt 10.0066 -0.350625
f 22/67/1 15/68/1 55/69/1 56/70/1 

usemtl FrontColor
f 20/24/5 22/34/5 15/33/5 14/25/5 

usemtl Color_I06
v -10.0066 -1.0177 0.350625
vt 0.350625 -1.0177
vt 0.350625 -2.41911
f 57/71/2 20/29/2 22/28/2 56/72/2 

vt 10.0066 -0.01375
vn 0 1 -0
vt -10.0066 -0.01375
vt -10.0066 -0.350625
v 10.0066 -1.0177 0.350625
vt 10.0066 -0.350625
f 14/73/6 20/74/6 57/75/6 58/76/6 

f 57/24/5 56/34/5 55/33/5 58/25/5 

vt -0.350625 -2.41911
vt -0.350625 -1.0177
f 55/77/4 15/19/4 14/18/4 58/78/4 

usemtl Color_C20
vt -9.55281 -0.01375
vt -8.92807 -0.01375
vt -5.33932 -0.01375
vt -4.88549 -0.01375
vt -4.24612 -0.01375
vt -3.69641 -0.01375
vt -0.0801625 -0.01375
vt 0.551539 -0.01375
vt 1.04654 -0.01375
vt 1.65392 -0.01375
vt 4.86454 -0.01375
vt 5.28305 -0.01375
vt 5.85368 -0.01375
vt 6.2741 -0.01375
vt 9.38848 -0.01375
vt 9.61469 -0.01375
f 23/2/1 18/3/1 17/68/1 53/79/1 52/80/1 49/81/1 48/82/1 45/83/1 44/84/1 41/85/1 40/86/1 37/87/1 36/88/1 33/89/1 32/90/1 29/91/1 28/92/1 25/93/1 24/94/1 21/67/1 

usemtl Color_B11
vt -10.0066 -3.82052
vt 10.0066 -3.82052
vt 10.0066 -0.680625
vt -10.0066 -0.680625
f 18/95/3 23/96/3 2/97/3 3/98/3 

f 3/98/3 2/97/3 7/12/3 11/11/3 

v -9.29605 -0.543125 -0.799839
vt 9.29605 0.799839
f 7/2/1 59/99/1 11/3/1

v -9.29605 -0.543125 -7.27907
vt 9.29605 7.27907
f 59/99/1 7/2/1 60/100/1

vt 10.0066 7.90625
f 6/101/1 60/100/1 7/2/1

vt -10.0066 7.90625
f 60/100/1 6/101/1 10/102/1

v -8.2648 -0.543125 -7.27907
vt 8.2648 7.27907
f 60/100/1 10/102/1 61/103/1

v -8.2648 -0.543125 -6.52282
vt 8.2648 6.52282
f 61/103/1 10/102/1 62/104/1

v 8.05869 -0.543125 -7.27907
vt -8.05869 7.27907
f 62/104/1 10/102/1 63/105/1

v 9.09682 -0.543125 -7.27907
vt -9.09682 7.27907
f 63/105/1 10/102/1 64/106/1

v 9.09682 -0.543125 -6.52282
vt -9.09682 6.52282
f 64/106/1 10/102/1 65/107/1

v 9.09682 -0.543125 -1.52509
vt -9.09682 1.52509
f 65/107/1 10/102/1 66/108/1

v 9.09682 -0.543125 -0.782587
vt -9.09682 0.782587
f 66/108/1 10/102/1 67/109/1

f 11/3/1 67/109/1 10/102/1

v 8.05869 -0.543125 -0.782587
vt -8.05869 0.782587
f 11/3/1 68/110/1 67/109/1

v -8.2648 -0.543125 -0.799839
vt 8.2648 0.799839
f 11/3/1 69/111/1 68/110/1

f 11/3/1 59/99/1 69/111/1

usemtl Color_007
v -8.2648 -7.51438 -0.799839
vt -8.2648 -7.51438
vt -8.2648 -0.543125
vt -9.29605 -0.543125
v -9.29605 -7.51438 -0.799839
vt -9.29605 -7.51438
f 70/112/5 69/113/5 59/114/5 71/115/5 

v -8.2648 -7.51438 -1.46671
vt 1.46671 -7.51438
v -8.2648 -0.543125 -1.46671
vt 1.46671 -0.543125
vt 0.799839 -0.543125
vt 0.799839 -7.51438
f 72/116/4 73/117/4 69/118/4 70/119/4 

v -9.29605 -7.51438 -1.46671
vt 9.29605 -7.51438
v -9.29605 -0.543125 -1.46671
vt 9.29605 -0.543125
vt 8.2648 -0.543125
vt 8.2648 -7.51438
f 74/120/3 75/121/3 73/122/3 72/123/3 

vt -0.799839 -7.51438
vt -0.799839 -0.543125
vt -1.46671 -0.543125
vt -1.46671 -7.51438
f 71/124/2 59/125/2 75/126/2 74/127/2 

usemtl Color_B11
v -9.29605 -0.543125 -6.52282
vt 9.29605 6.52282
vt 9.29605 1.46671
f 59/99/1 76/128/1 75/129/1

f 59/99/1 60/100/1 76/128/1

usemtl Color_007
v -9.29605 -7.535 -6.52282
vt -6.52282 -7.535
vt -6.52282 -0.543125
vt -7.27907 -0.543125
v -9.29605 -7.535 -7.27907
vt -7.27907 -7.535
f 77/130/2 76/131/2 60/132/2 78/133/2 

v -8.2648 -7.535 -6.52282
vt -8.2648 -7.535
vt -9.29605 -7.535
f 79/134/5 62/113/5 76/114/5 77/135/5 

v -8.2648 -7.535 -7.27907
vt 7.27907 -7.535
vt 7.27907 -0.543125
vt 6.52282 -0.543125
vt 6.52282 -7.535
f 80/136/4 61/137/4 62/138/4 79/139/4 

vt 9.29605 -7.535
vt 8.2648 -7.535
f 78/140/3 60/121/3 61/122/3 80/141/3 

f 78/100/1 80/103/1 79/104/1 77/128/1 

usemtl Color_B11
f 62/104/1 75/129/1 76/128/1

vt 8.2648 1.46671
f 75/129/1 62/104/1 73/142/1

f 62/104/1 63/105/1 73/142/1

f 73/142/1 63/105/1 69/111/1

f 68/110/1 69/111/1 63/105/1

v 8.05869 -0.543125 -6.52282
vt -8.05869 6.52282
f 68/110/1 63/105/1 81/143/1

usemtl Color_007
v 8.05869 -7.2875 -7.27907
vt -7.27907 -7.2875
v 8.05869 -7.2875 -6.52282
vt -6.52282 -7.2875
f 82/144/2 83/145/2 81/131/2 63/132/2 

v 9.09682 -7.2875 -7.27907
v 9.09682 -7.2875 -6.52282
f 82/105/1 84/106/1 85/107/1 83/143/1 

vt -9.09682 -7.2875
vt -8.05869 -7.2875
vt -8.05869 -0.543125
vt -9.09682 -0.543125
f 84/146/3 82/147/3 63/148/3 64/149/3 

vt 6.52282 -7.2875
vt 7.27907 -7.2875
f 85/150/4 84/151/4 64/137/4 65/138/4 

vt 8.05869 -7.2875
vt 9.09682 -7.2875
vt 9.09682 -0.543125
vt 8.05869 -0.543125
f 83/152/5 85/153/5 65/154/5 81/155/5 

usemtl Color_B11
v 8.05869 -0.543125 -1.52509
vt -8.05869 1.52509
f 65/107/1 86/156/1 81/143/1

f 86/156/1 65/107/1 66/108/1

usemtl Color_007
v 9.09682 -7.28063 -1.52509
vt -9.09682 -7.28063
v 8.05869 -7.28063 -1.52509
vt -8.05869 -7.28063
f 87/157/3 88/158/3 86/148/3 66/149/3 

v 9.09682 -7.28063 -0.782587
v 8.05869 -7.28063 -0.782587
f 89/109/1 90/110/1 88/156/1 87/108/1 

vt 8.05869 -7.28063
vt 9.09682 -7.28063
f 90/159/5 89/160/5 67/154/5 68/155/5 

vt 0.782587 -7.28063
vt 1.52509 -7.28063
vt 1.52509 -0.543125
vt 0.782587 -0.543125
f 89/161/4 87/162/4 66/163/4 67/164/4 

vt -1.52509 -7.28063
vt -0.782587 -7.28063
vt -0.782587 -0.543125
vt -1.52509 -0.543125
f 88/165/2 90/166/2 68/167/2 86/168/2 

usemtl Color_B11
f 68/110/1 81/143/1 86/156/1

usemtl Color_007
f 72/142/1 70/111/1 71/99/1 74/129/1 

usemtl Color_C20
v 9.55281 -3.82052 3.51313
vt -9.55281 -3.51313
v 10.0066 -3.82052 3.51313
vt -10.0066 -3.51313
f 91/169/1 53/79/1 17/68/1 92/170/1 

vt 3.51313 -3.82052
v 9.55281 -3.33927 3.51313
vt 3.51313 -3.33927
vt 0.01375 -3.33927
f 53/27/2 91/171/2 93/172/2 54/173/2 

vt 10.0066 -3.82052
v 10.0066 -3.33927 3.51313
f 91/65/5 92/174/5 94/32/5 93/66/5 

vt -3.51313 -3.82052
vt -3.51313 -3.33927
f 92/175/4 17/21/4 16/20/4 94/176/4 

usemtl FrontColor
f 53/65/5 17/174/5 16/32/5 54/66/5 

usemtl Color_C20
vt 9.55281 -0.01375
vt 9.55281 -3.51313
vt 10.0066 -3.51313
f 54/177/6 93/178/6 94/179/6 16/73/6 

usemtl Color_I06
v 8.92807 -3.82052 3.75375
vt -8.92807 -3.75375
v 5.33932 -3.82052 3.75375
vt -5.33932 -3.75375
f 52/80/1 95/180/1 96/181/1 49/81/1 

vt -3.75375 -3.82052
vt -0.01375 -3.23614
v 8.92807 -3.23614 3.75375
vt -3.75375 -3.23614
f 95/182/4 52/21/4 51/183/4 97/184/4 

usemtl FrontColor
f 49/61/5 52/64/5 51/63/5 50/62/5 

usemtl Color_I06
vt 8.92807 -3.75375
vt 8.92807 -0.01375
vt 5.33932 -0.01375
v 5.33932 -3.23614 3.75375
vt 5.33932 -3.75375
f 97/185/6 51/186/6 50/187/6 98/188/6 

vt 3.75375 -3.82052
vt 3.75375 -3.23614
vt 0.01375 -3.23614
f 49/27/2 96/189/2 98/190/2 50/191/2 

f 96/61/5 95/64/5 97/63/5 98/62/5 

usemtl Color_C20
v 4.24612 -3.82052 3.51313
vt -4.24612 -3.51313
v 4.88549 -3.82052 3.51313
vt -4.88549 -3.51313
f 99/192/1 45/83/1 48/82/1 100/193/1 

v 4.24612 -3.35989 3.51313
vt 3.51313 -3.35989
vt 0.01375 -3.35989
f 45/27/2 99/171/2 101/194/2 46/195/2 

v 4.88549 -3.35989 3.51313
f 99/57/5 100/60/5 102/59/5 101/58/5 

vt -0.01375 -3.35989
vt -3.51313 -3.35989
f 100/175/4 48/21/4 47/196/4 102/197/4 

usemtl FrontColor
f 45/57/5 48/60/5 47/59/5 46/58/5 

usemtl Color_C20
vt 4.24612 -0.01375
vt 4.24612 -3.51313
vt 4.88549 -3.51313
vt 4.88549 -0.01375
f 46/198/6 101/199/6 102/200/6 47/201/6 

usemtl Color_I06
v 0.0801625 -3.82052 3.75375
vt -0.0801625 -3.75375
v 3.69641 -3.82052 3.75375
vt -3.69641 -3.75375
f 103/202/1 41/85/1 44/84/1 104/203/1 

v 0.0801625 -3.22239 3.75375
vt 3.75375 -3.22239
vt 0.01375 -3.22239
f 41/27/2 103/189/2 105/204/2 42/205/2 

v 3.69641 -3.22239 3.75375
f 103/53/5 104/56/5 106/55/5 105/54/5 

vt -0.01375 -3.22239
vt -3.75375 -3.22239
f 104/182/4 44/21/4 43/206/4 106/207/4 

usemtl FrontColor
f 41/53/5 44/56/5 43/55/5 42/54/5 

usemtl Color_I06
vt 0.0801625 -0.01375
vt 0.0801625 -3.75375
vt 3.69641 -3.75375
vt 3.69641 -0.01375
f 42/208/6 105/209/6 106/210/6 43/211/6 

usemtl Color_C20
v -0.551539 -3.82052 3.51313
vt 0.551539 -3.51313
v -1.04654 -3.82052 3.51313
vt 1.04654 -3.51313
f 40/86/1 107/212/1 108/213/1 37/87/1 

vt -0.01375 -3.34614
v -0.551539 -3.34614 3.51313
vt -3.51313 -3.34614
f 107/175/4 40/21/4 39/214/4 109/215/4 

usemtl FrontColor
f 37/49/5 40/52/5 39/51/5 38/50/5 

usemtl Color_C20
vt -0.551539 -3.51313
vt -0.551539 -0.01375
vt -1.04654 -0.01375
v -1.04654 -3.34614 3.51313
vt -1.04654 -3.51313
f 109/216/6 39/217/6 38/218/6 110/219/6 

vt 3.51313 -3.34614
vt 0.01375 -3.34614
f 37/27/2 108/171/2 110/220/2 38/221/2 

f 108/49/5 107/52/5 109/51/5 110/50/5 

usemtl Color_I06
v -4.86454 -3.82052 3.75375
vt 4.86454 -3.75375
v -1.65392 -3.82052 3.75375
vt 1.65392 -3.75375
f 111/222/1 33/89/1 36/88/1 112/223/1 

v -4.86454 -3.18114 3.75375
vt 3.75375 -3.18114
vt 0.01375 -3.18114
f 33/27/2 111/189/2 113/224/2 34/225/2 

v -1.65392 -3.18114 3.75375
f 111/45/5 112/48/5 114/47/5 113/46/5 

vt -0.01375 -3.18114
vt -3.75375 -3.18114
f 112/182/4 36/21/4 35/226/4 114/227/4 

usemtl FrontColor
f 33/45/5 36/48/5 35/47/5 34/46/5 

usemtl Color_I06
vt -4.86454 -0.01375
vt -4.86454 -3.75375
vt -1.65392 -3.75375
vt -1.65392 -0.01375
f 34/228/6 113/229/6 114/230/6 35/231/6 

usemtl Color_C20
v -5.28305 -3.82052 3.51313
vt 5.28305 -3.51313
v -5.85368 -3.82052 3.51313
vt 5.85368 -3.51313
f 32/90/1 115/232/1 116/233/1 29/91/1 

vt -0.01375 -3.39427
v -5.28305 -3.39427 3.51313
vt -3.51313 -3.39427
f 115/175/4 32/21/4 31/234/4 117/235/4 

usemtl FrontColor
f 29/41/5 32/44/5 31/43/5 30/42/5 

usemtl Color_C20
vt -5.28305 -3.51313
vt -5.28305 -0.01375
vt -5.85368 -0.01375
v -5.85368 -3.39427 3.51313
vt -5.85368 -3.51313
f 117/236/6 31/237/6 30/238/6 118/239/6 

vt 3.51313 -3.39427
vt 0.01375 -3.39427
f 29/27/2 116/171/2 118/240/2 30/241/2 

f 116/41/5 115/44/5 117/43/5 118/42/5 

usemtl Color_I06
v -9.38848 -3.82052 3.75375
vt 9.38848 -3.75375
v -6.2741 -3.82052 3.75375
vt 6.2741 -3.75375
f 119/242/1 25/93/1 28/92/1 120/243/1 

v -9.38848 -3.18802 3.75375
vt 3.75375 -3.18802
vt 0.01375 -3.18802
f 25/27/2 119/189/2 121/244/2 26/245/2 

v -6.2741 -3.18802 3.75375
f 119/37/5 120/40/5 122/39/5 121/38/5 

vt -0.01375 -3.18802
vt -3.75375 -3.18802
f 120/182/4 28/21/4 27/246/4 122/247/4 

usemtl FrontColor
f 25/37/5 28/40/5 27/39/5 26/38/5 

usemtl Color_I06
vt -9.38848 -0.01375
vt -9.38848 -3.75375
vt -6.2741 -3.75375
vt -6.2741 -0.01375
f 26/248/6 121/249/6 122/250/6 27/251/6 

usemtl Color_C20
v -10.0066 -3.93001 3.69187
vt 10.0066 -3.80718
vn 0 -0.999557 -0.0297568
vt 10.0066 -0.12743
vt 9.61469 -0.12743
v -9.61469 -3.93001 3.69187
vt 9.61469 -3.80718
f 123/252/7 21/253/7 24/254/7 124/255/7 

vt 3.69187 -3.93001
v -10.0066 -3.52457 3.70395
vt 3.70395 -3.52457
v -10.0066 -3.41507 0.0258201
vt 0.0258201 -3.41507
f 21/27/2 123/256/2 125/257/2 126/258/2 

vt -10.0066 -3.81842
vn 0 -0.0297568 0.999557
vt -9.61469 -3.81842
v -9.61469 -3.52457 3.70395
vt -9.61469 -3.41279
vt -10.0066 -3.41279
f 123/259/8 124/260/8 127/261/8 125/262/8 

vt -3.69187 -3.93001
v -9.61469 -3.41507 0.0258201
vt -0.0258201 -3.41507
vt -3.70395 -3.52457
f 124/263/4 24/21/4 128/264/4 127/265/4 

usemtl FrontColor
vt 9.61469 -3.81842
vn 0 0.0297568 -0.999557
vt 10.0066 -3.81842
vt 10.0066 -3.41279
vt 9.61469 -3.41279
f 24/266/9 21/267/9 126/268/9 128/269/9 

usemtl Color_C20
vt -10.0066 -0.12743
vn 0 0.999557 0.0297568
vt -10.0066 -3.80718
vt -9.61469 -3.80718
vt -9.61469 -0.12743
f 126/270/10 125/271/10 127/272/10 128/273/10 

usemtl FrontColor
vt 10.0066 0
vt -10.0066 0
f 4/274/6 1/275/6 19/74/6 13/73/6 

usemtl Color_B11
f 1/23/5 4/26/5 12/274/5 8/275/5 

vt -10.0066 7.90625
vt 10.0066 7.90625
f 5/276/6 8/275/6 12/274/6 9/277/6 

