# Alias OBJ Model File
# Exported from SketchUp, (c) 2000-2012 Trimble Navigation Limited
# File units = inches

mtllib stairs.mtl

g Mesh1 Model

usemtl Helen_BraceletGlasses
v -67.7653 14.8047 -0
vt -67.7653 14.8047
vn 0 0 1
v -76.2653 14.8047 -0
vt -76.2653 14.8047
v -76.2653 7.67972 -0
vt -76.2653 7.67972
v -67.7653 7.67972 -0
vt -67.7653 7.67972
f 1/1/1 2/2/1 3/3/1 4/4/1 

vt -76.2653 0
vn 0 1 -0
vt -67.7653 0
v -67.7653 14.8047 -117.875
vt -67.7653 117.875
v -76.2653 14.8047 -117.875
vt -76.2653 117.875
f 2/5/2 1/6/2 5/7/2 6/8/2 

vt 0 14.8047
vn 1 0 -0
vt 0 7.67972
v -67.7653 7.67972 -117.875
vt 117.875 7.67972
vt 117.875 14.8047
f 1/9/3 4/10/3 7/11/3 5/12/3 

vt 67.7653 0
vn 0 -1 -0
vt 76.2653 0
v -76.2653 7.67972 -117.875
vt 76.2653 117.875
vt 67.7653 117.875
f 4/13/4 3/14/4 8/15/4 7/16/4 

vn -1 0 -0
vt -117.875 14.8047
vt -117.875 7.67972
f 3/10/5 2/9/5 6/17/5 8/18/5 

vt 76.2653 14.8047
vn 0 0 -1
vt 67.7653 14.8047
vt 67.7653 7.67972
vt 76.2653 7.67972
f 6/19/6 5/20/6 7/21/6 8/22/6 

g Mesh2 Model

v -59.2653 7.46332 -0
vt -59.2653 7.46332
v -67.7653 7.46332 -0
vt -67.7653 7.46332
v -67.7653 0.338319 -0
vt -67.7653 0.338319
v -59.2653 0.338319 -0
vt -59.2653 0.338319
f 9/23/1 10/24/1 11/25/1 12/26/1 

vt -59.2653 0
v -59.2653 7.46332 -117.938
vt -59.2653 117.938
v -67.7653 7.46332 -117.938
vt -67.7653 117.938
f 10/6/2 9/27/2 13/28/2 14/29/2 

vt 0 7.46332
vt 0 0.338319
v -59.2653 0.338319 -117.938
vt 117.938 0.338319
vt 117.938 7.46332
f 9/30/3 12/31/3 15/32/3 13/33/3 

vt 59.2653 0
v -67.7653 0.338319 -117.938
vt 67.7653 117.938
vt 59.2653 117.938
f 12/34/4 11/13/4 16/35/4 15/36/4 

vt -117.938 7.46332
vt -117.938 0.338319
f 11/31/5 10/30/5 14/37/5 16/38/5 

vt 67.7653 7.46332
vt 59.2653 7.46332
vt 59.2653 0.338319
vt 67.7653 0.338319
f 14/39/6 13/40/6 15/41/6 16/42/6 

g Mesh3 Model

v -50.9156 0.124481 -0
vt -50.9156 0.124481
v -59.4156 0.124481 -0
vt -59.4156 0.124481
v -59.4156 -7.00052 -0
vt -59.4156 -7.00052
v -50.9156 -7.00052 -0
vt -50.9156 -7.00052
f 17/43/1 18/44/1 19/45/1 20/46/1 

vt -59.4156 0
vt -50.9156 0
v -50.9156 0.124481 -117.875
vt -50.9156 117.875
v -59.4156 0.124481 -117.875
vt -59.4156 117.875
f 18/47/2 17/48/2 21/49/2 22/50/2 

vt 0 0.124481
vt 0 -7.00052
v -50.9156 -7.00052 -117.875
vt 117.875 -7.00052
vt 117.875 0.124481
f 17/51/3 20/52/3 23/53/3 21/54/3 

vt 50.9156 0
vt 59.4156 0
v -59.4156 -7.00052 -117.875
vt 59.4156 117.875
vt 50.9156 117.875
f 20/55/4 19/56/4 24/57/4 23/58/4 

vt -117.875 0.124481
vt -117.875 -7.00052
f 19/52/5 18/51/5 22/59/5 24/60/5 

vt 59.4156 0.124481
vt 50.9156 0.124481
vt 50.9156 -7.00052
vt 59.4156 -7.00052
f 22/61/6 21/62/6 23/63/6 24/64/6 

g Mesh4 Model

v -84.7158 22.1935 -0
vt 84.7158 22.1935
v -84.7069 22.1935 -0
vt 84.7069 22.1935
v -84.7069 21.9631 -0
vt 84.7069 21.9631
v -84.7158 21.9631 -0
vt 84.7158 21.9631
f 25/65/6 26/66/6 27/67/6 28/68/6 

vt 84.7069 0
vt 84.7158 0
v -84.7158 22.1935 -117.438
vt 84.7158 117.438
v -84.7069 22.1935 -117.438
vt 84.7069 117.438
f 26/69/4 25/70/4 29/71/4 30/72/4 

vt 0 22.1935
vt 0 21.9631
v -84.7158 21.9631 -117.438
vt 117.438 21.9631
vt 117.438 22.1935
f 25/73/3 28/74/3 31/75/3 29/76/3 

v -93.2069 21.9631 -0
vt 93.2069 0
v -93.2069 21.9631 -117.438
vt 93.2069 117.438
f 28/70/4 32/77/4 33/78/4 31/71/4 

v -93.2069 29.0881 -0
vt 0 29.0881
v -93.2069 29.0881 -117.438
vt -117.438 29.0881
vt -117.438 21.9631
f 32/74/5 34/79/5 35/80/5 33/81/5 

vt -93.2069 0
v -84.7069 29.0881 -0
vt -84.7069 0
v -84.7069 29.0881 -117.438
vt -84.7069 117.438
vt -93.2069 117.438
f 34/82/2 36/83/2 37/84/2 35/85/2 

vt 117.438 29.0881
f 36/79/3 26/73/3 30/76/3 37/86/3 

vt -117.438 22.1935
v -84.7069 22.1935 -117.688
vt -117.688 22.1935
v -84.7069 21.9631 -117.688
vt -117.688 21.9631
f 27/74/5 26/73/5 30/87/5 38/88/5 39/89/5 

v -76.2158 22.1935 -0
vt -76.2158 0
v -76.2158 22.1935 -117.688
vt -76.2158 117.688
vt -84.7069 117.688
f 26/83/2 40/90/2 41/91/2 38/92/2 30/84/2 

v -76.2158 15.0685 -0
vt 0 15.0685
v -76.2158 15.0685 -117.688
vt 117.688 15.0685
vt 117.688 22.1935
f 40/73/3 42/93/3 43/94/3 41/95/3 

vt 76.2158 0
v -84.7158 15.0685 -0
v -84.7158 15.0685 -117.688
vt 84.7158 117.688
vt 76.2158 117.688
f 42/96/4 44/70/4 45/97/4 43/98/4 

v -84.7158 21.9631 -117.688
vt -117.688 15.0685
f 44/93/5 28/74/5 31/81/5 46/89/5 45/99/5 

vt -84.7158 0
vt -84.7158 117.688
vt -84.7158 117.438
f 28/100/2 27/83/2 39/92/2 46/101/2 31/102/2 

vt 84.7158 15.0685
vt 76.2158 22.1935
vt 76.2158 15.0685
f 45/103/6 46/68/6 39/67/6 38/66/6 41/104/6 43/105/6 

vt 84.7069 29.0881
vt 93.2069 21.9631
vt 93.2069 29.0881
f 37/106/6 30/66/6 29/65/6 31/68/6 33/107/6 35/108/6 

