# Alias OBJ Model File
# Exported from SketchUp, (c) 2000-2012 Trimble Navigation Limited
# File units = meters

mtllib table3.mtl

g Mesh1 Model

usemtl Color_M09
v -1.56815 0.348552 -0
vt -61.7382 13.7225
vn 0 0 1
v -1.56815 0.0785518 -0
vt -61.7382 3.09259
v -1.06815 0.0785518 -0
vt -42.0532 3.09259
v -1.06815 0.348552 -0
vt -42.0532 13.7225
f 1/1/1 2/2/1 3/3/1 4/4/1 

vt 0 3.09259
vn -1 0 -0
vt 0 13.7225
v -1.56815 0.348552 -2.61
vt -102.756 13.7225
v -1.56815 0.0785518 -2.61
vt -102.756 3.09259
f 2/5/2 1/6/2 5/7/2 6/8/2 

vt -61.7382 2.83386e-16
vn -3.89078e-17 1 2.06511e-17
v -1.51227 0.348552 -1.16997
vt -59.5382 46.0619
vt -61.7382 102.756
f 1/9/3 7/10/3 5/11/3

v -1.49555 0.348552 -1.07352
vt -58.8801 42.2646
f 7/10/3 1/9/3 8/12/3

v -1.46661 0.348552 -0.988794
vt -57.7404 38.9289
f 8/12/3 1/9/3 9/13/3

vt -42.0532 2.83386e-16
f 9/13/3 1/9/3 4/14/3

v -1.4274 0.348552 -0.921564
vt -56.1968 36.282
f 9/13/3 4/14/3 10/15/3

v -1.3806 0.348552 -0.876413
vt -54.3544 34.5044
f 10/15/3 4/14/3 11/16/3

v -1.32941 0.348552 -0.856418
vt -52.3389 33.7172
f 11/16/3 4/14/3 12/17/3

v -1.27731 0.348552 -0.862941
vt -50.2876 33.9741
f 12/17/3 4/14/3 13/18/3

v -1.22784 0.348552 -0.895539
vt -48.3403 35.2574
f 13/18/3 4/14/3 14/19/3

v -1.18439 0.348552 -0.951989
vt -46.6297 37.4799
f 14/19/3 4/14/3 15/20/3

v -1.14992 0.348552 -1.02845
vt -45.2723 40.49
f 15/20/3 4/14/3 16/21/3

v -1.12676 0.348552 -1.1197
vt -44.3607 44.0825
f 16/21/3 4/14/3 17/22/3

v -1.11651 0.348552 -1.21952
vt -43.957 48.0127
f 17/22/3 4/14/3 18/23/3

v -1.06815 0.348552 -2.61
vt -42.0532 102.756
f 19/24/3 18/23/3 4/14/3

v -1.11985 0.348552 -1.32112
vt -44.0887 52.0128
f 19/24/3 20/25/3 18/23/3

v -1.13657 0.348552 -1.41758
vt -44.7469 55.8101
f 19/24/3 21/26/3 20/25/3

v -1.16552 0.348552 -1.5023
vt -45.8866 59.1458
f 19/24/3 22/27/3 21/26/3

v -1.20473 0.348552 -1.56953
vt -47.4302 61.7926
f 19/24/3 23/28/3 22/27/3

v -1.25152 0.348552 -1.61468
vt -49.2725 63.5702
f 19/24/3 24/29/3 23/28/3

v -1.30272 0.348552 -1.63468
vt -51.288 64.3575
f 19/24/3 25/30/3 24/29/3

v -1.35482 0.348552 -1.62816
vt -53.3394 64.1006
f 19/24/3 26/31/3 25/30/3

v -1.40428 0.348552 -1.59556
vt -55.2867 62.8172
f 19/24/3 27/32/3 26/31/3

v -1.44773 0.348552 -1.53911
vt -56.9973 60.5948
f 19/24/3 28/33/3 27/32/3

v -1.48221 0.348552 -1.46265
vt -58.3547 57.5847
f 19/24/3 29/34/3 28/33/3

f 5/11/3 29/34/3 19/24/3

v -1.50536 0.348552 -1.3714
vt -59.2663 53.9922
f 29/34/3 5/11/3 30/35/3

v -1.51562 0.348552 -1.27157
vt -59.6699 50.0619
f 30/35/3 5/11/3 31/36/3

f 5/11/3 7/10/3 31/36/3

vt -51.9985 13.7225
vn -0.999397 0 -0.0347138
vt -47.9963 13.7225
vn -0.994776 0 0.102086
v -1.51227 1.95855 -1.16997
vt -47.9963 77.1083
v -1.51562 1.95855 -1.27157
vt -51.9985 77.1083
f 31/37/4 7/38/5 32/39/5 33/40/4 

vt -55.5528 13.7225
vt -51.6989 13.7225
vn -0.968807 0 0.247815
v -1.49555 1.95855 -1.07352
vt -51.6989 77.1083
vt -55.5528 77.1083
f 7/41/5 8/42/6 34/43/6 32/44/5 

vt -59.0316 13.7225
vt -55.5066 13.7225
vn -0.909548 0 0.4156
v -1.46661 1.95855 -0.988794
vt -55.5066 77.1083
vt -59.0316 77.1083
f 8/45/6 9/46/7 35/47/7 34/48/6 

vt -62.7165 13.7225
vt -59.6524 13.7225
vn -0.786531 0 0.617551
v -1.4274 1.95855 -0.921564
vt -59.6524 77.1083
vt -62.7165 77.1083
f 9/49/7 10/50/8 36/51/8 35/52/7 

vt -65.6337 13.7225
vt -63.0736 13.7225
vn -0.539578 0 0.841935
v -1.3806 1.95855 -0.876413
vt -63.0736 77.1083
vt -65.6337 77.1083
f 10/53/8 11/54/9 37/55/9 36/56/8 

vt -63.1828 13.7225
vt -61.019 13.7225
vn -0.123583 0 0.992334
v -1.32941 1.95855 -0.856418
vt -61.019 77.1083
vt -63.1828 77.1083
f 11/57/9 12/58/10 38/59/10 37/60/9 

vt -47.7446 13.7225
vt -45.6773 13.7225
vn 0.346307 0 0.938121
v -1.27731 1.95855 -0.862941
vt -45.6773 77.1083
vt -47.7446 77.1083
f 12/61/10 13/62/11 39/63/11 38/64/10 

vt -23.2935 13.7225
vt -20.9613 13.7225
vn 0.680727 0 0.732537
v -1.22784 1.95855 -0.895539
vt -20.9613 77.1083
vt -23.2935 77.1083
f 13/65/11 14/66/12 40/67/12 39/68/11 

vt -1.5455 13.7225
vt 1.25905 13.7225
vn 0.857804 0 0.513977
v -1.18439 1.95855 -0.951989
vt 1.25905 77.1083
vt -1.5455 77.1083
f 14/69/12 15/70/13 41/71/13 40/72/12 

vt 14.9983 13.7225
vt 18.3003 13.7225
vn 0.944059 0 0.329777
v -1.14992 1.95855 -1.02845
vt 18.3003 77.1083
vt 14.9983 77.1083
f 15/73/13 16/74/14 42/75/14 41/76/13 

vt 28.1115 13.7225
vt 31.8179 13.7225
vn 0.984652 0 0.174529
v -1.12676 1.95855 -1.1197
vt 31.8179 77.1083
vt 28.1115 77.1083
f 16/77/14 17/78/15 43/79/15 42/80/14 

vt 39.3191 13.7225
vt 43.27 13.7225
vn 0.999397 0 0.0347138
v -1.11651 1.95855 -1.21952
vt 43.27 77.1083
vt 39.3191 77.1083
f 17/81/15 18/82/16 44/83/16 43/84/15 

vt 49.4333 13.7225
vt 53.4355 13.7225
vn 0.994776 0 -0.102086
v -1.11985 1.95855 -1.32112
vt 53.4355 77.1083
vt 49.4333 77.1083
f 18/85/16 20/86/17 45/87/17 44/88/16 

vt 58.7779 13.7225
vt 62.6318 13.7225
vn 0.968807 0 -0.247815
v -1.13657 1.95855 -1.41758
vt 62.6318 77.1083
vt 58.7779 77.1083
f 20/89/17 21/90/18 46/91/18 45/92/17 

vt 67.28 13.7225
vt 70.8051 13.7225
vn 0.909548 0 -0.4156
v -1.16552 1.95855 -1.5023
vt 70.8051 77.1083
vt 67.28 77.1083
f 21/93/18 22/94/19 47/95/19 46/96/18 

vt 74.2088 13.7225
vt 77.2729 13.7225
vn 0.786531 0 -0.617551
v -1.20473 1.95855 -1.56953
vt 77.2729 77.1083
vt 74.2088 77.1083
f 22/97/19 23/98/20 48/99/20 47/100/19 

vt 77.0383 13.7225
vt 79.5984 13.7225
vn 0.539578 0 -0.841935
v -1.25152 1.95855 -1.61468
vt 79.5984 77.1083
vt 77.0383 77.1083
f 23/101/20 24/102/21 49/103/21 48/104/20 

vt 69.0236 13.7225
vt 71.1874 13.7225
vn 0.123583 0 -0.992334
v -1.30272 1.95855 -1.63468
vt 71.1874 77.1083
vt 69.0236 77.1083
f 24/105/21 25/106/22 50/107/22 49/108/21 

vt 42.8953 13.7225
vt 44.9626 13.7225
vn -0.346307 0 -0.938121
v -1.35482 1.95855 -1.62816
vt 44.9626 77.1083
vt 42.8953 77.1083
f 25/109/22 26/110/23 51/111/23 50/112/22 

vt 9.26339 13.7225
vt 11.5956 13.7225
vn -0.680727 0 -0.732537
v -1.40428 1.95855 -1.59556
vt 11.5956 77.1083
vt 9.26339 77.1083
f 26/113/23 27/114/24 52/115/24 51/116/23 

vt -16.0571 13.7225
vt -13.2526 13.7225
vn -0.857804 0 -0.513977
v -1.44773 1.95855 -1.53911
vt -13.2526 77.1083
vt -16.0571 77.1083
f 27/117/24 28/118/25 53/119/25 52/120/24 

vt -31.808 13.7225
vt -28.506 13.7225
vn -0.944059 0 -0.329777
v -1.48221 1.95855 -1.46265
vt -28.506 77.1083
vt -31.808 77.1083
f 28/121/25 29/122/26 54/123/26 53/124/25 

vt -41.4636 13.7225
vt -37.7572 13.7225
vn -0.984652 0 -0.174529
v -1.50536 1.95855 -1.3714
vt -37.7572 77.1083
vt -41.4636 77.1083
f 29/125/26 30/126/27 55/127/27 54/128/26 

vt -47.6539 13.7225
vt -43.703 13.7225
vt -43.703 77.1083
vt -47.6539 77.1083
f 30/129/27 31/130/4 33/131/4 55/132/27 

usemtl FrontColor
vn 0 1 -0
f 33/36/28 32/10/28 34/12/28 35/13/28 36/15/28 37/16/28 38/17/28 39/18/28 40/19/28 41/20/28 42/21/28 43/22/28 44/23/28 45/25/28 46/26/28 47/27/28 48/28/28 49/29/28 50/30/28 51/31/28 52/32/28 53/33/28 54/34/28 55/35/28 

usemtl Color_M09
vt 61.7382 3.09259
vn 0 0 -1
vt 61.7382 13.7225
vt 42.0532 13.7225
v -1.06815 0.0785518 -2.61
vt 42.0532 3.09259
f 6/133/29 5/134/29 19/135/29 56/136/29 

vn 1 0 -0
vt 102.756 3.09259
vt 102.756 13.7225
f 4/6/30 3/5/30 56/137/30 19/138/30 

vt 42.0532 0
vn 0 -1 -0
vt 61.7382 0
vt 61.7382 102.756
vt 42.0532 102.756
f 3/139/31 2/140/31 6/141/31 56/142/31 

g Mesh2 Model

v -4.42113 0.358116 -0
vt -174.06 14.0991
v -4.42113 0.0881159 -0
vt -174.06 3.46913
v -3.92113 0.0881159 -0
vt -154.375 3.46913
v -3.92113 0.358116 -0
vt -154.375 14.0991
f 57/143/1 58/144/1 59/145/1 60/146/1 

vt 0 3.46913
vt 0 14.0991
v -4.42113 0.358116 -2.62
vt -103.15 14.0991
v -4.42113 0.0881159 -2.62
vt -103.15 3.46913
f 58/147/2 57/148/2 61/149/2 62/150/2 

vt -174.06 0
v -4.35653 0.358116 -1.25653
vt -171.517 49.4698
vt -174.06 103.15
f 57/151/28 63/152/28 61/153/28

v -4.35005 0.358116 -1.15073
vt -171.262 45.3042
f 63/152/28 57/151/28 64/154/28

v -4.33107 0.358116 -1.05213
vt -170.515 41.4225
f 64/154/28 57/151/28 65/155/28

v -4.30088 0.358116 -0.967466
vt -169.326 38.0892
f 65/155/28 57/151/28 66/156/28

vt -154.375 0
f 66/156/28 57/151/28 60/157/28

v -4.26153 0.358116 -0.902499
vt -167.777 35.5315
f 66/156/28 60/157/28 67/158/28

v -4.2157 0.358116 -0.86166
vt -165.973 33.9236
f 67/158/28 60/157/28 68/159/28

v -4.16653 0.358116 -0.84773
vt -164.037 33.3752
f 68/159/28 60/157/28 69/160/28

v -4.11735 0.358116 -0.86166
vt -162.1 33.9236
f 69/160/28 60/157/28 70/161/28

v -4.07153 0.358116 -0.902499
vt -160.296 35.5315
f 70/161/28 60/157/28 71/162/28

v -4.03218 0.358116 -0.967466
vt -158.747 38.0892
f 71/162/28 60/157/28 72/163/28

v -4.00198 0.358116 -1.05213
vt -157.558 41.4225
f 72/163/28 60/157/28 73/164/28

v -3.983 0.358116 -1.15073
vt -156.811 45.3042
f 73/164/28 60/157/28 74/165/28

v -3.97653 0.358116 -1.25653
vt -156.556 49.4698
f 74/165/28 60/157/28 75/166/28

v -3.92113 0.358116 -2.62
vt -154.375 103.15
f 76/167/28 75/166/28 60/157/28

v -3.983 0.358116 -1.36234
vt -156.811 53.6354
f 76/167/28 77/168/28 75/166/28

v -4.00198 0.358116 -1.46094
vt -157.558 57.5172
f 76/167/28 78/169/28 77/168/28

v -4.03218 0.358116 -1.5456
vt -158.747 60.8505
f 76/167/28 79/170/28 78/169/28

v -4.07153 0.358116 -1.61057
vt -160.296 63.4082
f 76/167/28 80/171/28 79/170/28

v -4.11735 0.358116 -1.65141
vt -162.1 65.0161
f 76/167/28 81/172/28 80/171/28

v -4.16653 0.358116 -1.66534
vt -164.037 65.5645
f 76/167/28 82/173/28 81/172/28

v -4.2157 0.358116 -1.65141
vt -165.973 65.0161
f 76/167/28 83/174/28 82/173/28

v -4.26153 0.358116 -1.61057
vt -167.777 63.4082
f 76/167/28 84/175/28 83/174/28

v -4.30088 0.358116 -1.5456
vt -169.326 60.8505
f 76/167/28 85/176/28 84/175/28

v -4.33107 0.358116 -1.46094
vt -170.515 57.5172
f 76/167/28 86/177/28 85/176/28

f 61/153/28 86/177/28 76/167/28

v -4.35005 0.358116 -1.36234
vt -171.262 53.6354
f 86/177/28 61/153/28 87/178/28

f 87/178/28 61/153/28 63/152/28

vt -43.0757 14.0991
vn -0.992116 0 -0.125319
vt -38.9023 14.0991
vn -1 0 4.17112e-16
v -4.35653 1.92812 -1.25653
vt -38.9023 75.9101
v -4.35005 1.92812 -1.36234
vt -43.0757 75.9101
f 87/179/32 63/180/33 88/181/33 89/182/32 

vt -59.8527 14.0991
vt -55.6793 14.0991
vn -0.992116 0 0.125319
v -4.35005 1.92812 -1.15073
vt -55.6793 75.9101
vt -59.8527 75.9101
f 63/183/33 64/184/34 90/185/34 88/186/33 

vt -76.8632 14.0991
vt -72.9102 14.0991
vn -0.964731 0 0.26324
v -4.33107 1.92812 -1.05213
vt -72.9102 75.9101
vt -76.8632 75.9101
f 64/187/34 65/188/35 91/189/35 90/190/34 

vt -96.293 14.0991
vt -92.7541 14.0991
vn -0.903219 0 0.42918
v -4.30088 1.92812 -0.967466
vt -92.7541 75.9101
vt -96.293 75.9101
f 65/191/35 66/192/36 92/193/36 91/194/35 

vt -120.303 14.0991
vt -117.312 14.0991
vn -0.768869 0 0.639407
v -4.26153 1.92812 -0.902499
vt -117.312 75.9101
vt -120.303 75.9101
f 66/195/36 67/196/37 93/197/37 92/198/36 

vt -148.893 14.0991
vt -146.476 14.0991
vn -0.481169 0 0.876628
v -4.2157 1.92812 -0.86166
vt -146.476 75.9101
vt -148.893 75.9101
f 67/199/37 68/200/38 94/201/38 93/202/37 

vt -168.935 14.0991
vt -166.923 14.0991
v -4.16653 1.92812 -0.84773
vt -166.923 75.9101
vt -168.935 75.9101
f 68/203/38 69/204/1 95/205/1 94/206/38 

vt -148.731 14.0991
vt -146.719 14.0991
vn 0.481169 0 0.876628
v -4.11735 1.92812 -0.86166
vt -146.719 75.9101
vt -148.731 75.9101
f 69/207/1 70/208/39 96/209/39 95/210/1 

vt -98.4445 14.0991
vt -96.0279 14.0991
vn 0.768869 0 0.639407
v -4.07153 1.92812 -0.902499
vt -96.0279 75.9101
vt -98.4445 75.9101
f 70/211/39 71/212/40 97/213/40 96/214/39 

vt -52.6545 14.0991
vt -49.6642 14.0991
vn 0.903219 0 0.42918
v -4.03218 1.92812 -0.967466
vt -49.6642 75.9101
vt -52.6545 75.9101
f 71/215/40 72/216/41 98/217/41 97/218/40 

vt -17.4485 14.0991
vt -13.9096 14.0991
vn 0.964731 0 0.26324
v -4.00198 1.92812 -1.05213
vt -13.9096 75.9101
vt -17.4485 75.9101
f 72/219/41 73/220/42 99/221/42 98/222/41 

vt 10.8903 14.0991
vt 14.8433 14.0991
vn 0.992116 0 0.125319
v -3.983 1.92812 -1.15073
vt 14.8433 75.9101
vt 10.8903 75.9101
f 73/223/42 74/224/43 100/225/43 99/226/42 

vt 35.6426 14.0991
vt 39.816 14.0991
vn 1 0 6.25668e-16
v -3.97653 1.92812 -1.25653
vt 39.816 75.9101
vt 35.6426 75.9101
f 74/227/43 75/228/44 101/229/44 100/230/43 

vt 58.939 14.0991
vt 63.1124 14.0991
vn 0.992116 0 -0.125319
v -3.983 1.92812 -1.36234
vt 63.1124 75.9101
vt 58.939 75.9101
f 75/231/44 77/232/45 102/233/45 101/234/44 

vt 82.3124 14.0991
vt 86.2654 14.0991
vn 0.964731 0 -0.26324
v -4.00198 1.92812 -1.46094
vt 86.2654 75.9101
vt 82.3124 75.9101
f 77/235/45 78/236/46 103/237/46 102/238/45 

vt 107.1 14.0991
vt 110.639 14.0991
vn 0.903219 0 -0.42918
v -4.03218 1.92812 -1.5456
vt 110.639 75.9101
vt 107.1 75.9101
f 78/239/46 79/240/47 104/241/47 103/242/46 

vt 134.291 14.0991
vt 137.281 14.0991
vn 0.768869 0 -0.639407
v -4.07153 1.92812 -1.61057
vt 137.281 75.9101
vt 134.291 75.9101
f 79/243/47 80/244/48 105/245/48 104/246/47 

vt 161.856 14.0991
vt 164.273 14.0991
vn 0.481169 0 -0.876628
v -4.11735 1.92812 -1.65141
vt 164.273 75.9101
vt 161.856 75.9101
f 80/247/48 81/248/49 106/249/49 105/250/48 

vt 173.684 14.0991
vt 175.696 14.0991
v -4.16653 1.92812 -1.66534
vt 175.696 75.9101
vt 173.684 75.9101
f 81/251/49 82/252/29 107/253/29 106/254/49 

vt 139.958 14.0991
vt 141.97 14.0991
vn -0.481169 0 -0.876628
v -4.2157 1.92812 -1.65141
vt 141.97 75.9101
vt 139.958 75.9101
f 82/255/29 83/256/50 108/257/50 107/258/29 

vt 80.6483 14.0991
vt 83.0649 14.0991
vn -0.768869 0 -0.639407
v -4.26153 1.92812 -1.61057
vt 83.0649 75.9101
vt 80.6483 75.9101
f 83/259/50 84/260/51 109/261/51 108/262/50 

vt 32.6859 14.0991
vt 35.6763 14.0991
vn -0.903219 0 -0.42918
v -4.30088 1.92812 -1.5456
vt 35.6763 75.9101
vt 32.6859 75.9101
f 84/263/51 85/264/52 110/265/52 109/266/51 

vt -0.436683 14.0991
vt 3.10226 14.0991
vn -0.964731 0 -0.26324
v -4.33107 1.92812 -1.46094
vt 3.10226 75.9101
vt -0.436683 75.9101
f 85/267/52 86/268/53 111/269/53 110/270/52 

vt -24.2455 14.0991
vt -20.2925 14.0991
vt -20.2925 75.9101
vt -24.2455 75.9101
f 86/271/53 87/272/32 89/273/32 111/274/53 

usemtl FrontColor
f 98/163/28 99/164/28 100/165/28 101/166/28 102/168/28 103/169/28 104/170/28 105/171/28 106/172/28 107/173/28 108/174/28 109/175/28 110/176/28 111/177/28 89/178/28 88/152/28 90/154/28 91/155/28 92/156/28 93/158/28 94/159/28 95/160/28 96/161/28 97/162/28 

usemtl Color_M09
vt 174.06 3.46913
vt 174.06 14.0991
vt 154.375 14.0991
v -3.92113 0.0881159 -2.62
vt 154.375 3.46913
f 62/275/29 61/276/29 76/277/29 112/278/29 

vt 103.15 3.46913
vt 103.15 14.0991
f 60/148/30 59/147/30 112/279/30 76/280/30 

vt 154.375 0
vt 174.06 0
vt 174.06 103.15
vt 154.375 103.15
f 59/281/31 58/282/31 62/283/31 112/284/31 

g Mesh3 Model

usemtl Color_M05
v -0.299409 1.96855 0.225948
vt 11.7877 -8.8956
v -1.32941 1.96855 0.225948
vt 52.3389 -8.8956
v -5.10427 1.96855 0.180744
vt 200.956 -7.11592
v -5.10427 1.96855 -2.84405
vt 200.956 111.971
v -0.299409 1.96855 -2.84405
vt 11.7877 111.971
f 113/285/31 114/286/31 115/287/31 116/288/31 117/289/31 

usemtl Color_M09
vt -52.3389 77.502
vt -11.7877 77.502
v -0.299409 2.19855 0.225948
vt -11.7877 86.5572
v -1.32941 2.19855 0.225948
vt -52.3389 86.5572
f 114/290/1 113/291/1 118/292/1 119/293/1 

vt -8.8956 77.502
vt 111.971 77.502
v -0.299409 2.19855 -2.84405
vt 111.971 86.5572
vt -8.8956 86.5572
f 113/294/30 117/295/30 120/296/30 118/297/30 

vt 11.7877 77.502
vt 200.956 77.502
v -5.10427 2.19855 -2.84405
vt 200.956 86.5572
vt 11.7877 86.5572
f 117/298/29 116/299/29 121/300/29 120/301/29 

vt -111.971 77.502
vt 7.11592 77.502
v -5.10427 2.19855 0.180744
vt 7.11592 86.5572
vt -111.971 86.5572
f 116/302/2 115/303/2 122/304/2 121/305/2 

vt -200.856 77.502
vn -0.0119741 0 0.999928
vt -52.2286 77.502
vt -52.2286 86.5572
vt -200.856 86.5572
f 115/306/54 114/307/54 119/308/54 122/309/54 

usemtl Color_M05
vt -52.3389 -8.8956
vt -11.7877 -8.8956
vt -11.7877 111.971
vt -200.956 111.971
vt -200.956 -7.11592
f 119/310/28 118/311/28 120/312/28 121/313/28 122/314/28 
