# Alias OBJ Model File
# Exported from SketchUp, (c) 2000-2012 Trimble Navigation Limited
# File units = inches

mtllib tabula.mtl

g Mesh1 Model

usemtl FrontColor
v -256570 -142462 -0
vt 256570 -142462
vn 0 0 -1
v -256570 -134091 -0
vt 256570 -134091
v -240886 -134091 -0
vt 240886 -134091
v -240886 -142462 -0
vt 240886 -142462
f 1/1/1 2/2/1 3/3/1 4/4/1 

usemtl Color_M06
vt 0 -134091
vn 1 0 -0
vt 0 -142462
v -256570 -142462 -429.172
vt 429.172 -142462
v -256570 -134091 -429.172
vt 429.172 -134091
f 2/5/2 1/6/2 5/7/2 6/8/2 

vt -256570 0
vn 0 1 -0
vt -240886 0
v -240886 -142462 -429.172
vt -240886 429.172
v -240886 -142462 -1994.32
vt -240886 1994.32
v -256570 -142462 -1994.32
vt -256570 1994.32
vt -256570 429.172
f 1/9/3 4/10/3 7/11/3 8/12/3 9/13/3 5/14/3 

vn -1 0 -0
v -240886 -134091 -429.172
vt -429.172 -134091
vt -429.172 -142462
f 4/6/4 3/5/4 10/15/4 7/16/4 

vt 240886 0
vn 0 -1 -0
vt 256570 0
vt 256570 429.172
vt 240886 429.172
f 3/17/5 2/18/5 6/19/5 10/20/5 

v -256570 -142844 -429.172
vt 256570 -142844
v -257035 -142844 -429.172
vt 257035 -142844
v -257035 -133766 -429.172
vt 257035 -133766
v -240399 -133766 -429.172
vt 240399 -133766
v -240399 -142844 -429.172
vt 240399 -142844
v -240886 -142844 -429.172
vt 240886 -142844
f 6/2/1 5/1/1 11/21/1 12/22/1 13/23/1 14/24/1 15/25/1 16/26/1 7/4/1 10/3/1 

usemtl FrontColor
v -256570 -142844 -1994.32
vt -1994.32 -142844
vt -429.172 -142844
vt -1994.32 -142462
f 17/27/4 11/28/4 5/16/4 9/29/4 

usemtl Color_M06
v -240886 -142844 -0
v -256570 -142844 -0
vt 256570 1994.32
v -240886 -142844 -1994.32
vt 240886 1994.32
f 18/17/5 19/18/5 11/19/5 17/30/5 20/31/5 16/20/5 

v -257035 -142844 -0
vt 257035 0
vt 257035 429.172
f 19/18/5 21/32/5 12/33/5 11/19/5 

vt 0 -142844
v -257035 -133766 -0
vt 0 -133766
vt -429.172 -133766
f 21/34/4 22/35/4 13/36/4 12/28/4 

vt -257035 0
v -240399 -133766 -0
vt -240399 0
vt -240399 429.172
vt -257035 429.172
f 22/37/3 23/38/3 14/39/3 13/40/3 

v -240399 -142844 -0
vt 429.172 -142844
vt 429.172 -133766
f 23/35/2 24/34/2 15/41/2 14/42/2 

vt 240399 0
vt 240399 429.172
f 24/43/5 18/17/5 16/20/5 15/44/5 

f 20/26/1 17/21/1 9/1/1 8/4/1 

vt 1994.32 -142462
vt 1994.32 -142844
f 8/45/2 7/7/2 16/41/2 20/46/2 

g Mesh2 Model

usemtl Color_M09
v -244102 -142422 -657.098
vt -121438 -149904
vn 0.865574 -0.0357627 0.499502
v -244059 -142404 -729.851
vt -121354 -149886
v -244020 -142365 -795.78
vt -121277 -149847
v -243986 -142308 -850.391
vt -121213 -149790
v -243960 -142236 -889.963
vt -121166 -149718
v -243944 -142154 -911.799
vt -121139 -149636
v -243939 -142068 -914.411
vt -121134 -149550
v -243945 -141984 -897.621
vt -121152 -149465
v -243962 -141907 -862.574
vt -121191 -149388
v -243989 -141843 -811.657
vt -121248 -149324
v -244023 -141796 -748.34
vt -121320 -149277
v -244063 -141769 -676.94
vt -121402 -149250
v -244106 -141764 -602.32
vt -121488 -149245
v -244149 -141782 -529.567
vt -121572 -149263
v -244189 -141820 -463.639
vt -121649 -149302
v -244223 -141878 -409.027
vt -121714 -149359
v -244248 -141950 -369.456
vt -121761 -149431
v -244264 -142032 -347.619
vt -121788 -149513
v -244269 -142118 -345.007
vt -121792 -149599
v -244263 -142202 -361.797
vt -121775 -149684
v -244246 -142279 -396.845
vt -121736 -149761
v -244219 -142343 -447.762
vt -121678 -149825
v -244185 -142390 -511.078
vt -121606 -149872
v -244145 -142417 -582.479
vt -121524 -149899
f 25/47/6 26/48/6 27/49/6 28/50/6 29/51/6 30/52/6 31/53/6 32/54/6 33/55/6 34/56/6 35/57/6 36/58/6 37/59/6 38/60/6 39/61/6 40/62/6 41/63/6 42/64/6 43/65/6 44/66/6 45/67/6 46/68/6 47/69/6 48/70/6 

vt 229176 -111673
vn 0.136072 -0.943123 -0.30332
vt 229191 -111758
vn 0.00670017 -0.99653 -0.0829588
v -245916 -142347 -1704.27
vt 231256 -111397
v -245874 -142329 -1777.02
vt 231241 -111312
f 26/71/7 25/72/8 49/73/8 50/74/7 

vt -112547 206725
vt -112500 206797
vn -0.123128 -0.982026 0.143056
v -245959 -142342 -1629.65
vt -114263 207932
vt -114310 207859
f 25/75/8 48/76/9 51/77/9 49/78/8 

vt -197357 91743.9
vt -197348 91829.5
vn -0.244566 -0.900598 0.359321
v -245999 -142315 -1558.25
vt -199430 92068.3
vt -199440 91982.7
f 48/79/9 47/80/10 52/81/10 51/82/9 

vt -204796 33165.4
vt -204790 33251.4
vn -0.349336 -0.757795 0.5511
v -246034 -142268 -1494.93
vt -206882 33388.2
vt -206888 33302.2
f 47/83/10 46/84/11 53/85/11 52/86/10 

vt -207750 -20605.9
vt -207746 -20519.8
vn -0.4303 -0.56335 0.705321
v -246061 -142204 -1444.02
vt -209840 -20419.3
vt -209844 -20505.3
f 46/87/11 45/88/12 54/89/12 53/90/11 

vt -209512 -70409.2
vt -209509 -70323.1
vn -0.48194 -0.330514 0.811477
v -246078 -142127 -1408.97
vt -211603 -70239.1
vt -211607 -70325.3
f 45/91/12 44/92/13 55/93/13 54/94/12 

vt -210827 -113958
vt -210824 -113872
vn -0.500736 -0.0751537 0.862331
v -246084 -142043 -1392.18
vt -212919 -113795
vt -212922 -113881
f 44/95/13 43/96/14 56/97/14 55/98/13 

vt -211983 -148642
vt -211980 -148556
vn -0.485408 0.185328 0.854419
v -246079 -141957 -1394.79
vt -214075 -148481
vt -214078 -148567
f 43/99/14 42/100/15 57/101/15 56/102/14 

vt -213154 -172155
vt -213151 -172069
vn -0.437 0.43318 0.78828
v -246063 -141875 -1416.63
vt -215246 -171990
vt -215249 -172076
f 42/103/15 41/104/16 58/105/16 57/106/15 

vt -214524 -182708
vt -214521 -182622
vn -0.358812 0.651512 0.668421
v -246037 -141803 -1456.2
vt -216615 -182532
vt -216619 -182618
f 41/107/16 40/108/17 59/109/17 58/110/16 

vt -216426 -178951
vt -216421 -178865
vn -0.256171 0.825444 0.50301
v -246003 -141745 -1510.81
vt -218514 -178753
vt -218519 -178839
f 40/111/17 39/112/18 60/113/18 59/114/17 

vt -219789 -159033
vt -219782 -158947
vn -0.136072 0.943123 0.30332
v -245964 -141707 -1576.74
vt -221872 -158781
vt -221878 -158867
f 39/115/18 38/116/19 61/117/19 60/118/18 

vt -229191 -111758
vt -229176 -111673
vn -0.00670017 0.99653 0.0829588
v -245921 -141689 -1649.49
vt -231241 -111312
vt -231256 -111397
f 38/119/19 37/120/20 62/121/20 61/122/19 

vt 112500 206797
vt 112547 206725
vn 0.123128 0.982026 -0.143056
v -245878 -141694 -1724.11
vt 114310 207859
vt 114263 207932
f 37/123/20 36/124/21 63/125/21 62/126/20 

vt 197348 91829.5
vt 197357 91743.9
vn 0.244566 0.900598 -0.359321
v -245838 -141721 -1795.51
vt 199440 91982.7
vt 199430 92068.3
f 36/127/21 35/128/22 64/129/22 63/130/21 

vt 204790 33251.4
vt 204796 33165.4
vn 0.349336 0.757795 -0.5511
v -245803 -141768 -1858.83
vt 206888 33302.2
vt 206882 33388.2
f 35/131/22 34/132/23 65/133/23 64/134/22 

vt 207746 -20519.8
vt 207750 -20605.9
vn 0.4303 0.56335 -0.705321
v -245777 -141832 -1909.75
vt 209844 -20505.3
vt 209840 -20419.3
f 34/135/23 33/136/24 66/137/24 65/138/23 

vt 209509 -70323.1
vt 209512 -70409.2
vn 0.48194 0.330514 -0.811477
v -245760 -141909 -1944.79
vt 211607 -70325.3
vt 211603 -70239.1
f 33/139/24 32/140/25 67/141/25 66/142/24 

vt 210824 -113872
vt 210827 -113958
vn 0.500736 0.0751537 -0.862331
v -245753 -141993 -1961.58
vt 212922 -113881
vt 212919 -113795
f 32/143/25 31/144/26 68/145/26 67/146/25 

vt 211980 -148556
vt 211983 -148642
vn 0.485408 -0.185328 -0.854419
v -245758 -142079 -1958.97
vt 214078 -148567
vt 214075 -148481
f 31/147/26 30/148/27 69/149/27 68/150/26 

vt 213151 -172069
vt 213154 -172155
vn 0.437 -0.43318 -0.78828
v -245774 -142161 -1937.14
vt 215249 -172076
vt 215246 -171990
f 30/151/27 29/152/28 70/153/28 69/154/27 

vt 214521 -182622
vt 214524 -182708
vn 0.358812 -0.651512 -0.668421
v -245800 -142233 -1897.56
vt 216619 -182618
vt 216615 -182532
f 29/155/28 28/156/29 71/157/29 70/158/28 

vt 216421 -178865
vt 216426 -178951
vn 0.256171 -0.825444 -0.50301
v -245834 -142290 -1842.95
vt 218519 -178839
vt 218514 -178753
f 28/159/29 27/160/30 72/161/30 71/162/29 

vt 219782 -158947
vt 219789 -159033
vt 221878 -158867
vt 221872 -158781
f 27/163/30 26/164/7 50/165/7 72/166/30 

vt 121354 -149886
vn -0.865574 0.0357627 -0.499502
vt 121438 -149904
vt 121524 -149899
vt 121606 -149872
vt 121678 -149825
vt 121736 -149761
vt 121775 -149684
vt 121792 -149599
vt 121788 -149513
vt 121761 -149431
vt 121714 -149359
vt 121649 -149302
vt 121572 -149263
vt 121488 -149245
vt 121402 -149250
vt 121320 -149277
vt 121248 -149324
vt 121191 -149388
vt 121152 -149465
vt 121134 -149550
vt 121139 -149636
vt 121166 -149718
vt 121213 -149790
vt 121277 -149847
f 50/167/31 49/168/31 51/169/31 52/170/31 53/171/31 54/172/31 55/173/31 56/174/31 57/175/31 58/176/31 59/177/31 60/178/31 61/179/31 62/180/31 63/181/31 64/182/31 65/183/31 66/184/31 67/185/31 68/186/31 69/187/31 70/188/31 71/189/31 72/190/31 

